<svg width="261" height="261" viewBox="0 0 261 261" fill="none" xmlns="http://www.w3.org/2000/svg">
<circle cx="130.5" cy="130.5" r="130" fill="#FFEBE6"/>
<g filter="url(#filter0_i_1_6753)">
<path d="M108.505 188.291C109.273 183.974 112.588 178.913 116.746 177.245C124.691 174.058 133.974 178.074 137.91 186.38L213.424 156.084L171.174 50.7752L95.6601 81.0712C98.5564 89.7944 94.6228 99.1128 86.6779 102.3C82.5198 103.968 77.9175 103.67 74.052 101.77C70.4318 100.052 67.3802 97.1731 65.5139 93.1658L37.521 104.396L79.835 209.866L107.754 198.665C107.754 198.665 107.987 191.297 108.505 188.291Z" fill="#FC3B0A"/>
</g>
<g filter="url(#filter1_d_1_6753)">
<path d="M144.523 152.879L164.044 101.729C165.157 98.8144 163.774 95.367 160.955 94.0291C158.136 92.6913 154.949 93.9698 153.837 96.885L134.322 148.031C133.209 150.947 134.592 154.394 137.411 155.732C138.816 156.398 140.316 156.411 141.605 155.895C142.893 155.378 143.968 154.331 144.523 152.879Z" fill="white"/>
<path d="M168.193 138.318C169.399 141.323 172.665 142.844 175.442 141.729C178.22 140.615 179.496 137.272 178.29 134.267C177.085 131.263 173.852 129.728 171.075 130.843L171.021 130.864C168.237 131.981 166.988 135.314 168.193 138.318Z" fill="white"/>
<path d="M122.971 108.013L122.917 108.034C120.133 109.151 118.884 112.484 120.089 115.488C121.295 118.493 124.561 120.014 127.338 118.899C130.116 117.785 131.392 114.442 130.186 111.437C128.981 108.433 125.748 106.898 122.971 108.013Z" fill="white"/>
</g>
<path d="M89.4724 110.13L95.6922 125.633" stroke="#BB2A07" stroke-width="8.00047" stroke-miterlimit="10" stroke-linecap="round"/>
<path d="M101.333 139.692L104.555 147.725" stroke="#BB2A07" stroke-width="8.00047" stroke-miterlimit="10" stroke-linecap="round"/>
<path d="M110.195 161.782L113.418 169.815" stroke="#BB2A07" stroke-width="8.00047" stroke-miterlimit="10" stroke-linecap="round"/>
<g filter="url(#filter2_f_1_6753)">
<ellipse cx="167.338" cy="211.411" rx="28.5" ry="3" transform="rotate(22.999 167.338 211.411)" fill="#8B8B8B"/>
</g>
<g filter="url(#filter3_i_1_6753)">
<path d="M156.504 203.877C156.504 203.877 159.542 213.365 169.702 213.47L180.305 198.882C180.305 198.882 189.171 194.406 196.328 195.513L195.352 189.344C195.352 189.344 183.185 191.269 181.273 193.064L188.991 182.446L180.358 176.17L171.918 187.781C171.918 187.781 173.833 180.452 171.053 174.261L165.02 176.928C165.02 176.928 168.778 183.755 165.452 191.044L156.517 203.962L156.504 203.877Z" fill="#00B535"/>
</g>
<g filter="url(#filter4_i_1_6753)">
<path d="M156.878 160.167C156.491 160.492 152.473 164.245 153.192 169.62C153.648 173.061 155.791 175.226 156.513 175.902C157.447 176.808 159.671 178.652 162.941 179.057C167.378 179.628 171.982 177.363 174.84 173.222C174.732 173.371 172.897 175.374 173.638 178.111C174.107 179.969 175.65 181.394 177.558 181.795C178.542 184.406 181.131 186.06 183.778 185.861C186.033 185.68 188.049 184.263 188.986 182.139C188.526 182.563 186.88 184.097 186.516 186.789C186.174 189.346 187.221 191.245 187.573 191.804C188.114 192.728 189.292 194.342 191.385 195.636C193.243 196.835 195.065 197.25 196.098 197.394C195.99 198.377 195.846 201.078 197.601 203.567C199.758 206.651 203.903 208.148 208.147 207.213C208.904 207.005 213.107 205.813 215.496 201.483C217.466 197.834 216.874 194.371 216.675 193.392C217.667 193.279 220.739 192.705 223.313 190.103C226.564 186.778 226.562 182.606 226.526 181.822C226.544 181.38 226.836 177.118 223.493 174.309C221.057 172.235 218.212 172.29 217.513 172.313C218.27 171.271 220.182 168.641 220.37 164.835C220.711 158.94 216.885 155.022 216.263 154.418C215.216 153.354 211.472 149.95 205.6 149.474C201.189 149.073 197.825 150.572 196.401 151.28C196.463 149.733 196.188 148.547 195.831 147.681C193.557 141.63 185.258 140.527 184.717 140.437C183.504 140.541 181.447 140.866 179.305 142.04C176.311 143.655 174.652 145.938 173.958 147.101C173.096 146.096 171.229 144.283 168.243 143.175C164.418 141.76 161.104 142.46 159.882 142.785C154.434 145.271 151.617 150.504 152.687 154.77C153.446 157.899 156.048 159.639 157.027 160.275L156.878 160.167Z" fill="#007935"/>
</g>
<g filter="url(#filter5_i_1_6753)">
<path d="M201.66 193.054L196.632 190.92C187.756 187.152 177.506 191.294 173.738 200.17L173.723 200.207C169.955 209.083 174.097 219.333 182.973 223.101L188 225.235C196.877 229.002 207.127 224.861 210.894 215.984L210.91 215.948C214.677 207.071 210.536 196.821 201.66 193.054Z" fill="#F60018"/>
</g>
<g filter="url(#filter6_d_1_6753)">
<path d="M192.65 200.509L196.889 200.317L199.72 203.034L200.576 201.016L204.058 201.281L200.684 198.723L204.244 197.679L199.026 196.2C199.026 196.2 200.864 191.87 203.147 192.103L203.226 190.794C203.226 190.794 199.384 189.337 198.287 195.8L195.957 192.819L195.65 196.196L191.491 193.955L193.471 197.35L192.687 200.525L192.65 200.509Z" fill="#008134"/>
</g>
<path d="M182.736 199.644C184.105 200.225 185.685 199.587 186.266 198.218C186.847 196.849 186.208 195.269 184.84 194.688C183.471 194.107 181.891 194.746 181.31 196.114C180.729 197.483 181.367 199.063 182.736 199.644Z" fill="white" fill-opacity="0.5"/>
<defs>
<filter id="filter0_i_1_6753" x="29.5205" y="34.7742" width="183.903" height="175.091" filterUnits="userSpaceOnUse" color-interpolation-filters="sRGB">
<feFlood flood-opacity="0" result="BackgroundImageFix"/>
<feBlend mode="normal" in="SourceGraphic" in2="BackgroundImageFix" result="shape"/>
<feColorMatrix in="SourceAlpha" type="matrix" values="0 0 0 0 0 0 0 0 0 0 0 0 0 0 0 0 0 0 127 0" result="hardAlpha"/>
<feOffset dx="-8.00047" dy="-16.0009"/>
<feGaussianBlur stdDeviation="16.0009"/>
<feComposite in2="hardAlpha" operator="arithmetic" k2="-1" k3="1"/>
<feColorMatrix type="matrix" values="0 0 0 0 0 0 0 0 0 0 0 0 0 0 0 0 0 0 0.22 0"/>
<feBlend mode="normal" in2="shape" result="effect1_innerShadow_1_6753"/>
</filter>
<filter id="filter1_d_1_6753" x="87.6289" y="93.4984" width="123.117" height="126.765" filterUnits="userSpaceOnUse" color-interpolation-filters="sRGB">
<feFlood flood-opacity="0" result="BackgroundImageFix"/>
<feColorMatrix in="SourceAlpha" type="matrix" values="0 0 0 0 0 0 0 0 0 0 0 0 0 0 0 0 0 0 127 0" result="hardAlpha"/>
<feOffset dy="32.0019"/>
<feGaussianBlur stdDeviation="16.0009"/>
<feComposite in2="hardAlpha" operator="out"/>
<feColorMatrix type="matrix" values="0 0 0 0 0 0 0 0 0 0 0 0 0 0 0 0 0 0 0.25 0"/>
<feBlend mode="normal" in2="BackgroundImageFix" result="effect1_dropShadow_1_6753"/>
<feBlend mode="normal" in="SourceGraphic" in2="effect1_dropShadow_1_6753" result="shape"/>
</filter>
<filter id="filter2_f_1_6753" x="123.473" y="182.332" width="87.7311" height="58.1594" filterUnits="userSpaceOnUse" color-interpolation-filters="sRGB">
<feFlood flood-opacity="0" result="BackgroundImageFix"/>
<feBlend mode="normal" in="SourceGraphic" in2="BackgroundImageFix" result="shape"/>
<feGaussianBlur stdDeviation="8.80216" result="effect1_foregroundBlur_1_6753"/>
</filter>
<filter id="filter3_i_1_6753" x="150.504" y="162.945" width="45.8244" height="50.5249" filterUnits="userSpaceOnUse" color-interpolation-filters="sRGB">
<feFlood flood-opacity="0" result="BackgroundImageFix"/>
<feBlend mode="normal" in="SourceGraphic" in2="BackgroundImageFix" result="shape"/>
<feColorMatrix in="SourceAlpha" type="matrix" values="0 0 0 0 0 0 0 0 0 0 0 0 0 0 0 0 0 0 127 0" result="hardAlpha"/>
<feOffset dx="-6" dy="-12"/>
<feGaussianBlur stdDeviation="5.65781"/>
<feComposite in2="hardAlpha" operator="arithmetic" k2="-1" k3="1"/>
<feColorMatrix type="matrix" values="0 0 0 0 0 0 0 0 0 0 0 0 0 0 0 0 0 0 0.25 0"/>
<feBlend mode="normal" in2="shape" result="effect1_innerShadow_1_6753"/>
</filter>
<filter id="filter4_i_1_6753" x="149.634" y="129.122" width="76.9058" height="78.3672" filterUnits="userSpaceOnUse" color-interpolation-filters="sRGB">
<feFlood flood-opacity="0" result="BackgroundImageFix"/>
<feBlend mode="normal" in="SourceGraphic" in2="BackgroundImageFix" result="shape"/>
<feColorMatrix in="SourceAlpha" type="matrix" values="0 0 0 0 0 0 0 0 0 0 0 0 0 0 0 0 0 0 127 0" result="hardAlpha"/>
<feOffset dx="-2.8289" dy="-11.3156"/>
<feGaussianBlur stdDeviation="7.07226"/>
<feComposite in2="hardAlpha" operator="arithmetic" k2="-1" k3="1"/>
<feColorMatrix type="matrix" values="0 0 0 0 0 0 0 0 0 0 0 0 0 0 0 0 0 0 0.25 0"/>
<feBlend mode="normal" in2="shape" result="effect1_innerShadow_1_6753"/>
</filter>
<filter id="filter5_i_1_6753" x="161.562" y="189.528" width="50.7399" height="37.0994" filterUnits="userSpaceOnUse" color-interpolation-filters="sRGB">
<feFlood flood-opacity="0" result="BackgroundImageFix"/>
<feBlend mode="normal" in="SourceGraphic" in2="BackgroundImageFix" result="shape"/>
<feColorMatrix in="SourceAlpha" type="matrix" values="0 0 0 0 0 0 0 0 0 0 0 0 0 0 0 0 0 0 127 0" result="hardAlpha"/>
<feOffset dx="-10.7683"/>
<feGaussianBlur stdDeviation="8.07623"/>
<feComposite in2="hardAlpha" operator="arithmetic" k2="-1" k3="1"/>
<feColorMatrix type="matrix" values="0 0 0 0 0 0 0 0 0 0 0 0 0 0 0 0 0 0 0.25 0"/>
<feBlend mode="normal" in2="shape" result="effect1_innerShadow_1_6753"/>
</filter>
<filter id="filter6_d_1_6753" x="188.799" y="189.307" width="18.1374" height="17.7645" filterUnits="userSpaceOnUse" color-interpolation-filters="sRGB">
<feFlood flood-opacity="0" result="BackgroundImageFix"/>
<feColorMatrix in="SourceAlpha" type="matrix" values="0 0 0 0 0 0 0 0 0 0 0 0 0 0 0 0 0 0 127 0" result="hardAlpha"/>
<feOffset dy="1.34604"/>
<feGaussianBlur stdDeviation="1.34604"/>
<feComposite in2="hardAlpha" operator="out"/>
<feColorMatrix type="matrix" values="0 0 0 0 0 0 0 0 0 0 0 0 0 0 0 0 0 0 0.25 0"/>
<feBlend mode="normal" in2="BackgroundImageFix" result="effect1_dropShadow_1_6753"/>
<feBlend mode="normal" in="SourceGraphic" in2="effect1_dropShadow_1_6753" result="shape"/>
</filter>
</defs>
</svg>
