<svg width="261" height="261" viewBox="0 0 261 261" fill="none" xmlns="http://www.w3.org/2000/svg">
<circle cx="130.5" cy="130.5" r="130" fill="#FFEBE6"/>
<path fill-rule="evenodd" clip-rule="evenodd" d="M243.5 171.433C243.5 185.657 231.97 197.187 217.746 197.187C203.522 197.187 191.991 185.657 191.991 171.433C191.991 157.209 203.522 145.679 217.746 145.679C231.97 145.679 243.5 157.209 243.5 171.433ZM229.46 171.433C229.46 177.905 224.214 183.151 217.743 183.151C211.272 183.151 206.026 177.905 206.026 171.433C206.026 164.962 211.272 159.716 217.743 159.716C224.214 159.716 229.46 164.962 229.46 171.433Z" fill="#0F172C"/>
<path fill-rule="evenodd" clip-rule="evenodd" d="M143.474 171.433C143.474 185.657 131.943 197.187 117.719 197.187C103.495 197.187 91.9645 185.657 91.9645 171.433C91.9645 157.209 103.495 145.679 117.719 145.679C131.943 145.679 143.474 157.209 143.474 171.433ZM129.434 171.433C129.434 177.905 124.188 183.151 117.716 183.151C111.245 183.151 105.999 177.905 105.999 171.433C105.999 164.962 111.245 159.716 117.716 159.716C124.188 159.716 129.434 164.962 129.434 171.433Z" fill="#0F172C"/>
<path d="M168.43 69.0052C176.988 65.9628 186.379 70.428 189.421 78.9861L216.447 155.009L185.475 166.02L158.449 89.9966C155.406 81.4385 159.871 72.0476 168.43 69.0052Z" fill="#0F172C"/>
<path d="M109.657 126.962H144.219C149.292 126.962 153.42 131.091 153.42 136.163V164.159C153.42 169.231 149.292 173.36 144.219 173.36H81.7009C76.6286 173.32 72.5 169.192 72.5 164.12C72.5 143.634 89.1716 126.962 109.657 126.962Z" fill="#0F172C"/>
<path d="M217.707 164.71H127.939C125.551 164.71 123.614 166.637 123.614 169.015C123.614 171.393 125.551 173.321 127.939 173.321H217.707C220.095 173.321 222.032 171.393 222.032 169.015C222.032 166.637 220.095 164.71 217.707 164.71Z" fill="#0F172C"/>
<path d="M166.24 111.903L177.997 155.862C177.997 155.862 181.496 169.152 167.734 171.236L217.749 173.32L180.671 101.326L166.24 111.903Z" fill="#0F172C"/>
<path d="M134.191 103.607V122.52C134.191 125.154 132.028 127.317 129.394 127.317H80.4408C77.8064 127.317 75.6438 125.154 75.6438 122.52V80.1333C75.6438 77.4989 77.8064 75.3363 80.4408 75.3363H129.394C132.028 75.3363 134.191 77.4989 134.191 80.1333V103.607Z" fill="#FF3A0A"/>
<path d="M123.311 97.8884C123.259 97.1175 122.792 96.6136 122.681 96.495C122.206 96.0058 121.65 95.8798 121.391 95.8279C120.012 95.5315 118.789 96.3542 118.248 96.7247C117.433 97.2732 117.255 97.6586 116.692 98.1626C115.943 98.8371 114.683 99.5856 112.46 99.7635C112.934 100.423 113.438 101.216 113.913 102.143C114.268 102.839 114.557 103.506 114.787 104.114C116.277 102.091 117.596 101.483 118.567 101.327C118.945 101.268 119.464 101.246 120.272 101.001C121.124 100.749 121.962 100.475 122.614 99.7116C122.821 99.467 123.385 98.8074 123.325 97.8884H123.311ZM120.894 99.2595C120.161 99.6523 119.338 99.556 119.064 99.0372C118.789 98.5183 119.16 97.7846 119.901 97.3918C120.635 96.999 121.458 97.0953 121.732 97.6141C122.006 98.1329 121.636 98.8667 120.894 99.2595Z" fill="white"/>
<path d="M110.37 114.683L106.413 107.264C105.427 107.383 104.426 106.916 103.9 106.011C103.885 105.982 103.87 105.96 103.856 105.93L102.181 102.787C102.025 102.498 102.136 102.143 102.425 101.987C102.566 101.913 102.729 101.898 102.877 101.942C103.025 101.987 103.151 102.083 103.226 102.232L104.515 104.648C104.567 104.744 104.649 104.811 104.745 104.84C104.841 104.87 104.952 104.863 105.041 104.811C105.212 104.722 105.286 104.529 105.234 104.351C105.234 104.329 105.219 104.299 105.204 104.277L103.87 101.779C103.781 101.513 103.893 101.209 104.152 101.068C104.293 100.994 104.456 100.979 104.604 101.023C104.708 101.053 104.804 101.112 104.878 101.201L106.227 103.736C106.227 103.736 106.264 103.803 106.294 103.825C106.338 103.877 106.398 103.907 106.464 103.929C106.479 103.929 106.501 103.929 106.516 103.936L106.494 103.899C106.494 103.899 106.509 103.929 106.516 103.936C106.598 103.951 106.687 103.936 106.768 103.899C106.946 103.803 107.02 103.595 106.954 103.417C106.954 103.403 106.939 103.388 106.931 103.373L105.612 100.897C105.501 100.623 105.612 100.305 105.879 100.156C106.02 100.082 106.183 100.067 106.331 100.112C106.479 100.156 106.605 100.253 106.679 100.401L108.243 103.321C108.243 103.321 108.288 103.388 108.31 103.425C108.31 103.425 108.34 103.477 108.369 103.536C108.933 104.588 108.562 105.596 108.562 105.596C108.495 105.782 108.354 106.093 108.051 106.397L111.801 113.431C114.506 110.436 115.188 105.952 113.179 102.194C110.615 97.3992 104.656 95.5833 99.8533 98.1403C98.8898 98.6517 98.0448 99.3114 97.3333 100.06L99.164 103.492L100.565 102.743C100.869 102.58 101.254 102.698 101.417 103.002L103.907 107.664C104.797 109.332 104.167 111.415 102.499 112.304C102.344 112.385 102.173 112.4 102.017 112.348C101.862 112.304 101.728 112.193 101.647 112.045L96.103 101.661C94.3316 104.544 94.0944 108.257 95.7991 111.459C98.3635 116.254 104.322 118.07 109.125 115.513C109.577 115.276 110 115.002 110.393 114.705C110.393 114.698 110.385 114.691 110.378 114.683H110.37Z" fill="white"/>
<path d="M96.4814 114.52C96.9558 115.091 97.7488 115.914 98.9273 116.566C101.662 118.07 105.39 118.048 108.318 116.833C110.319 116.002 111.297 114.883 113.306 115.039C114.314 115.12 115.114 115.484 115.641 115.78C114.699 116.395 113.58 117.01 112.261 117.529C108.236 119.123 104.53 118.96 102.344 118.663C102.529 118.908 102.87 119.278 103.389 119.575C104.138 119.99 104.842 120.027 105.175 120.02C105.175 120.02 99.9056 122.11 96.4814 114.52Z" fill="white"/>
<path d="M110.585 98.0662C110.022 97.5845 109.095 96.91 107.828 96.4653C104.878 95.4499 101.209 96.1021 98.5262 97.8068C96.6956 98.9704 95.9247 100.238 93.9236 100.423C92.923 100.519 92.0707 100.297 91.5 100.09C92.3227 99.3262 93.3233 98.5257 94.5314 97.7846C98.2298 95.5314 101.899 95.0571 104.107 94.9756C103.877 94.768 103.485 94.4568 102.921 94.2566C102.113 93.975 101.409 94.0639 101.083 94.1306C101.083 94.1306 105.923 91.1734 110.585 98.0662Z" fill="white"/>
<path d="M201.961 70.4347L202.433 70.4158C203.926 70.3561 205.232 71.5238 205.293 73.056L206.104 93.3288C206.163 94.8217 204.996 96.1277 203.463 96.1889C196.274 96.4765 190.186 90.8566 189.898 83.6668L189.893 83.549C189.615 76.595 195.009 70.7521 201.963 70.474L201.961 70.4347Z" fill="#0F172C"/>
<path d="M120.121 75.3363H90.3556V86.0706H120.121V75.3363Z" fill="#00C8FF"/>
<path d="M25.5 147L60.75 142.237L60.75 151.763L25.5 147Z" fill="#FF3A0A"/>
<path d="M25.5 168L60.75 163.237L60.75 172.763L25.5 168Z" fill="#FF3A0A"/>
<path d="M17.5 157.5L52.75 154.902L52.75 160.098L17.5 157.5Z" fill="#FF3A0A"/>
</svg>
