<svg width="20" height="20" viewBox="0 0 20 20" fill="none" xmlns="http://www.w3.org/2000/svg">
<path d="M8.73655 14.3705H3.34277" stroke="#999999" stroke-width="1.25" stroke-linecap="round" stroke-linejoin="round"/>
<path fill-rule="evenodd" clip-rule="evenodd" d="M12.121 14.3712C12.121 16.0727 12.6884 16.6394 14.3891 16.6394C16.0899 16.6394 16.6573 16.0727 16.6573 14.3712C16.6573 12.6698 16.0899 12.1031 14.3891 12.1031C12.6884 12.1031 12.121 12.6698 12.121 14.3712Z" stroke="#999999" stroke-width="1.25" stroke-linecap="round" stroke-linejoin="round"/>
<path d="M11.2639 5.62989H16.6569" stroke="#999999" stroke-width="1.25" stroke-linecap="round" stroke-linejoin="round"/>
<path fill-rule="evenodd" clip-rule="evenodd" d="M7.87959 5.62881C7.87959 3.92807 7.31218 3.36066 5.61143 3.36066C3.90994 3.36066 3.34253 3.92807 3.34253 5.62881C3.34253 7.33031 3.90994 7.89697 5.61143 7.89697C7.31218 7.89697 7.87959 7.33031 7.87959 5.62881Z" stroke="#999999" stroke-width="1.25" stroke-linecap="round" stroke-linejoin="round"/>
</svg>
