<svg width="24" height="24" viewBox="0 0 24 24" fill="none" xmlns="http://www.w3.org/2000/svg">
<mask id="path-1-inside-1_1_8268" fill="white">
<path d="M20.7111 13.1848L20.6711 13.2348L19.3801 14.766L16.3178 18.3787L16.2678 18.4388C16.2678 18.4388 16.2678 18.4388 16.2678 18.4488C15.247 19.6297 13.7259 20.3802 12.0346 20.3802C10.3433 20.3802 8.8422 19.6397 7.81142 18.4588C7.79141 18.4388 7.77139 18.4188 7.76138 18.3987L4.67906 14.816L3.37808 13.2949C2.41736 12.2041 1.89697 10.763 2.01706 9.22182C2.13715 7.68066 2.85769 6.33965 3.9385 5.40895C5.01932 4.46824 6.47041 3.94785 8.01157 4.05793C9.55273 4.17802 10.8937 4.89857 11.8244 5.97938C11.8745 6.03943 11.9345 6.10948 11.9846 6.16952C12.0046 6.1395 12.0346 6.10948 12.0546 6.07946C12.0746 6.05944 12.0946 6.02942 12.1147 6.0094C12.1347 5.98939 12.1447 5.96937 12.1647 5.95937C13.0954 4.86854 14.4364 4.13799 15.9576 4.0179C17.4787 3.89781 18.9198 4.38818 20.0006 5.29887L20.0506 5.3389C21.1315 6.25959 21.852 7.6006 21.9821 9.12175C22.1022 10.6429 21.6118 12.084 20.7011 13.1648L20.7111 13.1848Z"/>
</mask>
<path d="M20.7111 13.1848L21.8824 14.1219C22.2479 13.665 22.3144 13.0373 22.0528 12.514L20.7111 13.1848ZM20.6711 13.2348L21.8179 14.2017C21.8262 14.1919 21.8344 14.182 21.8424 14.1719L20.6711 13.2348ZM19.3801 14.766L20.5244 15.7359L20.5269 15.7329L19.3801 14.766ZM16.3178 18.3787L15.1736 17.4088L15.1655 17.4184L16.3178 18.3787ZM16.2678 18.4388H14.7678C14.7678 19.0703 15.1633 19.6342 15.7572 19.8492C16.351 20.0642 17.0158 19.8842 17.4201 19.399L16.2678 18.4388ZM16.2678 18.4488L17.4026 19.4297C17.6382 19.1572 17.7678 18.809 17.7678 18.4488H16.2678ZM7.81142 18.4588L8.94147 17.4724C8.91919 17.4469 8.89604 17.4221 8.87208 17.3981L7.81142 18.4588ZM7.76138 18.3987L9.10303 17.7279C9.04777 17.6174 8.97906 17.5141 8.89847 17.4205L7.76138 18.3987ZM4.67906 14.816L3.53911 15.791L3.54197 15.7943L4.67906 14.816ZM3.37808 13.2949L4.51802 12.3199C4.5133 12.3144 4.50854 12.3089 4.50374 12.3035L3.37808 13.2949ZM3.9385 5.40895L4.9173 6.54562L4.92329 6.54041L3.9385 5.40895ZM8.01157 4.05793L8.12811 2.56244L8.11844 2.56175L8.01157 4.05793ZM11.8244 5.97938L12.9768 5.0191C12.9716 5.01289 12.9664 5.00672 12.9611 5.0006L11.8244 5.97938ZM11.9846 6.16952L10.8322 7.1298C11.1352 7.49337 11.592 7.69263 12.0646 7.66739C12.5372 7.64214 12.9701 7.39535 13.2326 7.00157L11.9846 6.16952ZM12.0546 6.07946L10.994 5.0188C10.9241 5.08864 10.8613 5.16522 10.8065 5.24741L12.0546 6.07946ZM12.1647 5.95937L12.8355 7.30101C13.0154 7.21109 13.1753 7.08592 13.3058 6.93296L12.1647 5.95937ZM20.0006 5.29887L19.0341 6.44596C19.0438 6.45416 19.0536 6.46223 19.0636 6.47018L20.0006 5.29887ZM20.0506 5.3389L21.0233 4.19703C21.0116 4.18704 20.9997 4.17722 20.9877 4.16759L20.0506 5.3389ZM21.9821 9.12175L23.4775 9.00369L23.4766 8.99393L21.9821 9.12175ZM20.7011 13.1648L19.554 12.1983C19.1681 12.6563 19.0917 13.2999 19.3595 13.8356L20.7011 13.1648ZM19.5399 12.2477L19.4998 12.2978L21.8424 14.1719L21.8824 14.1219L19.5399 12.2477ZM19.5243 12.268L18.2334 13.7991L20.5269 15.7329L21.8179 14.2017L19.5243 12.268ZM18.2359 13.7961L15.1736 17.4088L17.4621 19.3486L20.5244 15.7359L18.2359 13.7961ZM15.1655 17.4184L15.1155 17.4785L17.4201 19.399L17.4702 19.339L15.1655 17.4184ZM16.2678 18.4388C17.7678 18.4388 16.2678 18.4388 14.7678 18.4388C14.7678 18.4388 14.7678 18.4388 14.7678 18.4388V18.4388V18.4388V18.4388V18.4388C14.7678 18.4388 14.7678 18.4388 14.7678 18.4388V18.4388C14.7678 18.4388 14.7678 18.4388 14.7678 18.4388C14.7678 18.4388 14.7678 18.4388 14.7678 18.4388V18.4388C14.7678 18.4388 14.7678 18.4388 14.7678 18.4388C14.7678 18.4388 14.7678 18.4388 14.7678 18.4388C14.7678 18.4388 14.7678 18.4388 14.7678 18.4388V18.4388C14.7678 18.4388 14.7678 18.4388 14.7678 18.4388C14.7678 18.4388 14.7678 18.4388 14.7678 18.4388V18.4388C14.7678 18.4388 14.7678 18.4388 14.7678 18.4388C14.7678 18.4388 14.7678 18.4388 14.7678 18.4388C14.7678 18.4388 14.7678 18.4388 14.7678 18.4388C14.7678 18.4388 14.7678 18.4388 14.7678 18.4388C14.7678 18.4388 14.7678 18.4388 14.7678 18.4388C14.7678 18.4388 14.7678 18.4388 14.7678 18.4388C14.7678 18.4388 14.7678 18.4388 14.7678 18.4388C14.7678 18.4388 14.7678 18.4388 14.7678 18.4388C14.7678 18.4388 14.7678 18.4388 14.7678 18.4388V18.4388V18.4388C14.7678 18.4388 14.7678 18.4388 14.7678 18.4388C14.7678 18.4388 14.7678 18.4388 14.7678 18.4388V18.4388V18.4388C14.7678 18.4388 14.7678 18.4388 14.7678 18.4388V18.4388C14.7678 18.4388 14.7678 18.4388 14.7678 18.4388V18.4388C14.7678 18.4388 14.7678 18.4388 14.7678 18.4388V18.4388C14.7678 18.4388 14.7678 18.4388 14.7678 18.4388V18.4388C14.7678 18.4388 14.7678 18.4388 14.7678 18.4388C14.7678 18.4388 14.7678 18.4388 14.7678 18.4388V18.4388C14.7678 18.4388 14.7678 18.4388 14.7678 18.4388C14.7678 18.4388 14.7678 18.4388 14.7678 18.4388C14.7678 18.4388 14.7678 18.4388 14.7678 18.4388C14.7678 18.4388 14.7678 18.4388 14.7678 18.4388C14.7678 18.4388 14.7678 18.4388 14.7678 18.4388C14.7678 18.4388 14.7678 18.4388 14.7678 18.4388C14.7678 18.4388 14.7678 18.4388 14.7678 18.4388C14.7678 18.4388 14.7678 18.4388 14.7678 18.4388C14.7678 18.4388 14.7678 18.4388 14.7678 18.4388C14.7678 18.4388 14.7678 18.4388 14.7678 18.4388C14.7678 18.4388 14.7678 18.4388 14.7678 18.4388C14.7678 18.4388 14.7678 18.4388 14.7678 18.4388C14.7678 18.4388 14.7678 18.4388 14.7678 18.4388C14.7678 18.4388 14.7678 18.4388 14.7678 18.4388C14.7678 18.4388 14.7678 18.4388 14.7678 18.4388C14.7678 18.4388 14.7678 18.4389 14.7678 18.4389C14.7678 18.4389 14.7678 18.4389 14.7678 18.4389C14.7678 18.4389 14.7678 18.4389 14.7678 18.4389C14.7678 18.4389 14.7678 18.4389 14.7678 18.4389C14.7678 18.4389 14.7678 18.4389 14.7678 18.4389C14.7678 18.4389 14.7678 18.4389 14.7678 18.4389C14.7678 18.4389 14.7678 18.4389 14.7678 18.4389C14.7678 18.4389 14.7678 18.4389 14.7678 18.4389C14.7678 18.4389 14.7678 18.4389 14.7678 18.4389C14.7678 18.4389 14.7678 18.4389 14.7678 18.4389C14.7678 18.4389 14.7678 18.4389 14.7678 18.4389C14.7678 18.4389 14.7678 18.4389 14.7678 18.4389C14.7678 18.4389 14.7678 18.4389 14.7678 18.4389C14.7678 18.4389 14.7678 18.4389 14.7678 18.4389C14.7678 18.4389 14.7678 18.4389 14.7678 18.4389C14.7678 18.4389 14.7678 18.4389 14.7678 18.4389C14.7678 18.4389 14.7678 18.4389 14.7678 18.4389C14.7678 18.4389 14.7678 18.4389 14.7678 18.4389C14.7678 18.4389 14.7678 18.4389 14.7678 18.4389C14.7678 18.4389 14.7678 18.4389 14.7678 18.4389C14.7678 18.4389 14.7678 18.4389 14.7678 18.4389C14.7678 18.4389 14.7678 18.4389 14.7678 18.4389C14.7678 18.4389 14.7678 18.4389 14.7678 18.4389C14.7678 18.4389 14.7678 18.4389 14.7678 18.4389C14.7678 18.4389 14.7678 18.4389 14.7678 18.4389C14.7678 18.4389 14.7678 18.4389 14.7678 18.4389C14.7678 18.4389 14.7678 18.4389 14.7678 18.4389C14.7678 18.4389 14.7678 18.4389 14.7678 18.4389C14.7678 18.4389 14.7678 18.4389 14.7678 18.4389C14.7678 18.4389 14.7678 18.4389 14.7678 18.4389C14.7678 18.4389 14.7678 18.4389 14.7678 18.4389C14.7678 18.4389 14.7678 18.4389 14.7678 18.4389C14.7678 18.4389 14.7678 18.439 14.7678 18.439C14.7678 18.439 14.7678 18.439 14.7678 18.439C14.7678 18.439 14.7678 18.439 14.7678 18.439C14.7678 18.439 14.7678 18.439 14.7678 18.439C14.7678 18.439 14.7678 18.439 14.7678 18.439C14.7678 18.439 14.7678 18.439 14.7678 18.439C14.7678 18.439 14.7678 18.439 14.7678 18.439C14.7678 18.439 14.7678 18.439 14.7678 18.439C14.7678 18.439 14.7678 18.439 14.7678 18.439C14.7678 18.439 14.7678 18.439 14.7678 18.439C14.7678 18.439 14.7678 18.439 14.7678 18.439C14.7678 18.439 14.7678 18.439 14.7678 18.439C14.7678 18.439 14.7678 18.439 14.7678 18.439C14.7678 18.439 14.7678 18.439 14.7678 18.439C14.7678 18.439 14.7678 18.439 14.7678 18.439C14.7678 18.439 14.7678 18.439 14.7678 18.439C14.7678 18.439 14.7678 18.439 14.7678 18.439C14.7678 18.439 14.7678 18.439 14.7678 18.439C14.7678 18.439 14.7678 18.439 14.7678 18.439C14.7678 18.439 14.7678 18.439 14.7678 18.439C14.7678 18.439 14.7678 18.439 14.7678 18.439C14.7678 18.439 14.7678 18.4391 14.7678 18.4391C14.7678 18.4391 14.7678 18.4391 14.7678 18.4391C14.7678 18.4391 14.7678 18.4391 14.7678 18.4391C14.7678 18.4391 14.7678 18.4391 14.7678 18.4391C14.7678 18.4391 14.7678 18.4391 14.7678 18.4391C14.7678 18.4391 14.7678 18.4391 14.7678 18.4391C14.7678 18.4391 14.7678 18.4391 14.7678 18.4391C14.7678 18.4391 14.7678 18.4391 14.7678 18.4391C14.7678 18.4391 14.7678 18.4391 14.7678 18.4391C14.7678 18.4391 14.7678 18.4391 14.7678 18.4391C14.7678 18.4391 14.7678 18.4391 14.7678 18.4391C14.7678 18.4391 14.7678 18.4391 14.7678 18.4391C14.7678 18.4391 14.7678 18.4391 14.7678 18.4391C14.7678 18.4391 14.7678 18.4391 14.7678 18.4391C14.7678 18.4391 14.7678 18.4391 14.7678 18.4391C14.7678 18.4391 14.7678 18.4391 14.7678 18.4391C14.7678 18.4391 14.7678 18.4391 14.7678 18.4391C14.7678 18.4392 14.7678 18.4392 14.7678 18.4392C14.7678 18.4392 14.7678 18.4392 14.7678 18.4392C14.7678 18.4392 14.7678 18.4392 14.7678 18.4392C14.7678 18.4392 14.7678 18.4392 14.7678 18.4392C14.7678 18.4392 14.7678 18.4392 14.7678 18.4392C14.7678 18.4392 14.7678 18.4392 14.7678 18.4392C14.7678 18.4392 14.7678 18.4392 14.7678 18.4392C14.7678 18.4392 14.7678 18.4392 14.7678 18.4392C14.7678 18.4392 14.7678 18.4392 14.7678 18.4392C14.7678 18.4392 14.7678 18.4392 14.7678 18.4392C14.7678 18.4392 14.7678 18.4392 14.7678 18.4392C14.7678 18.4392 14.7678 18.4392 14.7678 18.4392C14.7678 18.4392 14.7678 18.4392 14.7678 18.4392C14.7678 18.4392 14.7678 18.4392 14.7678 18.4392C14.7678 18.4393 14.7678 18.4393 14.7678 18.4393C14.7678 18.4393 14.7678 18.4393 14.7678 18.4393C14.7678 18.4393 14.7678 18.4393 14.7678 18.4393C14.7678 18.4393 14.7678 18.4393 14.7678 18.4393C14.7678 18.4393 14.7678 18.4393 14.7678 18.4393C14.7678 18.4393 14.7678 18.4393 14.7678 18.4393C14.7678 18.4393 14.7678 18.4393 14.7678 18.4393C14.7678 18.4393 14.7678 18.4393 14.7678 18.4393C14.7678 18.4393 14.7678 18.4393 14.7678 18.4393C14.7678 18.4393 14.7678 18.4393 14.7678 18.4393C14.7678 18.4393 14.7678 18.4393 14.7678 18.4393C14.7678 18.4393 14.7678 18.4393 14.7678 18.4393C14.7678 18.4394 14.7678 18.4394 14.7678 18.4394C14.7678 18.4394 14.7678 18.4394 14.7678 18.4394C14.7678 18.4394 14.7678 18.4394 14.7678 18.4394C14.7678 18.4394 14.7678 18.4394 14.7678 18.4394C14.7678 18.4394 14.7678 18.4394 14.7678 18.4394C14.7678 18.4394 14.7678 18.4394 14.7678 18.4394C14.7678 18.4394 14.7678 18.4394 14.7678 18.4394C14.7678 18.4394 14.7678 18.4394 14.7678 18.4394C14.7678 18.4394 14.7678 18.4394 14.7678 18.4394C14.7678 18.4394 14.7678 18.4394 14.7678 18.4394C14.7678 18.4394 14.7678 18.4394 14.7678 18.4395C14.7678 18.4395 14.7678 18.4395 14.7678 18.4395C14.7678 18.4395 14.7678 18.4395 14.7678 18.4395C14.7678 18.4395 14.7678 18.4395 14.7678 18.4395C14.7678 18.4395 14.7678 18.4395 14.7678 18.4395C14.7678 18.4395 14.7678 18.4395 14.7678 18.4395C14.7678 18.4395 14.7678 18.4395 14.7678 18.4395C14.7678 18.4395 14.7678 18.4395 14.7678 18.4395C14.7678 18.4395 14.7678 18.4395 14.7678 18.4395C14.7678 18.4395 14.7678 18.4395 14.7678 18.4395C14.7678 18.4395 14.7678 18.4395 14.7678 18.4396C14.7678 18.4396 14.7678 18.4396 14.7678 18.4396C14.7678 18.4396 14.7678 18.4396 14.7678 18.4396C14.7678 18.4396 14.7678 18.4396 14.7678 18.4396C14.7678 18.4396 14.7678 18.4396 14.7678 18.4396C14.7678 18.4396 14.7678 18.4396 14.7678 18.4396C14.7678 18.4396 14.7678 18.4396 14.7678 18.4396C14.7678 18.4396 14.7678 18.4396 14.7678 18.4396C14.7678 18.4396 14.7678 18.4396 14.7678 18.4396C14.7678 18.4396 14.7678 18.4396 14.7678 18.4397C14.7678 18.4397 14.7678 18.4397 14.7678 18.4397C14.7678 18.4397 14.7678 18.4397 14.7678 18.4397C14.7678 18.4397 14.7678 18.4397 14.7678 18.4397C14.7678 18.4397 14.7678 18.4397 14.7678 18.4397C14.7678 18.4397 14.7678 18.4397 14.7678 18.4397C14.7678 18.4397 14.7678 18.4397 14.7678 18.4397C14.7678 18.4397 14.7678 18.4397 14.7678 18.4397C14.7678 18.4397 14.7678 18.4397 14.7678 18.4397C14.7678 18.4398 14.7678 18.4398 14.7678 18.4398C14.7678 18.4398 14.7678 18.4398 14.7678 18.4398C14.7678 18.4398 14.7678 18.4398 14.7678 18.4398C14.7678 18.4398 14.7678 18.4398 14.7678 18.4398C14.7678 18.4398 14.7678 18.4398 14.7678 18.4398C14.7678 18.4398 14.7678 18.4398 14.7678 18.4398C14.7678 18.4398 14.7678 18.4398 14.7678 18.4398C14.7678 18.4398 14.7678 18.4398 14.7678 18.4399C14.7678 18.4399 14.7678 18.4399 14.7678 18.4399C14.7678 18.4399 14.7678 18.4399 14.7678 18.4399C14.7678 18.4399 14.7678 18.4399 14.7678 18.4399C14.7678 18.4399 14.7678 18.4399 14.7678 18.4399C14.7678 18.4399 14.7678 18.4399 14.7678 18.4399C14.7678 18.4399 14.7678 18.4399 14.7678 18.4399C14.7678 18.4399 14.7678 18.4399 14.7678 18.4399C14.7678 18.44 14.7678 18.44 14.7678 18.44C14.7678 18.44 14.7678 18.44 14.7678 18.44C14.7678 18.44 14.7678 18.44 14.7678 18.44C14.7678 18.44 14.7678 18.44 14.7678 18.44C14.7678 18.44 14.7678 18.44 14.7678 18.44C14.7678 18.44 14.7678 18.44 14.7678 18.44C14.7678 18.44 14.7678 18.44 14.7678 18.44C14.7678 18.4401 14.7678 18.4401 14.7678 18.4401C14.7678 18.4401 14.7678 18.4401 14.7678 18.4401C14.7678 18.4401 14.7678 18.4401 14.7678 18.4401C14.7678 18.4401 14.7678 18.4401 14.7678 18.4401C14.7678 18.4401 14.7678 18.4401 14.7678 18.4401C14.7678 18.4401 14.7678 18.4401 14.7678 18.4401C14.7678 18.4401 14.7678 18.4402 14.7678 18.4402C14.7678 18.4402 14.7678 18.4402 14.7678 18.4402C14.7678 18.4402 14.7678 18.4402 14.7678 18.4402C14.7678 18.4402 14.7678 18.4402 14.7678 18.4402C14.7678 18.4402 14.7678 18.4402 14.7678 18.4402C14.7678 18.4402 14.7678 18.4402 14.7678 18.4402C14.7678 18.4402 14.7678 18.4402 14.7678 18.4403C14.7678 18.4403 14.7678 18.4403 14.7678 18.4403C14.7678 18.4403 14.7678 18.4403 14.7678 18.4403C14.7678 18.4403 14.7678 18.4403 14.7678 18.4403C14.7678 18.4403 14.7678 18.4403 14.7678 18.4403C14.7678 18.4403 14.7678 18.4403 14.7678 18.4403C14.7678 18.4403 14.7678 18.4403 14.7678 18.4404C14.7678 18.4404 14.7678 18.4404 14.7678 18.4404C14.7678 18.4404 14.7678 18.4404 14.7678 18.4404C14.7678 18.4404 14.7678 18.4404 14.7678 18.4404C14.7678 18.4404 14.7678 18.4404 14.7678 18.4404C14.7678 18.4404 14.7678 18.4404 14.7678 18.4404C14.7678 18.4404 14.7678 18.4405 14.7678 18.4405C14.7678 18.4405 14.7678 18.4405 14.7678 18.4405C14.7678 18.4405 14.7678 18.4405 14.7678 18.4405C14.7678 18.4405 14.7678 18.4405 14.7678 18.4405C14.7678 18.4405 14.7678 18.4405 14.7678 18.4405C14.7678 18.4405 14.7678 18.4405 14.7678 18.4405C14.7678 18.4406 14.7678 18.4406 14.7678 18.4406C14.7678 18.4406 14.7678 18.4406 14.7678 18.4406C14.7678 18.4406 14.7678 18.4406 14.7678 18.4406C14.7678 18.4406 14.7678 18.4406 14.7678 18.4406C14.7678 18.4406 14.7678 18.4406 14.7678 18.4406C14.7678 18.4407 14.7678 18.4407 14.7678 18.4407C14.7678 18.4407 14.7678 18.4407 14.7678 18.4407C14.7678 18.4407 14.7678 18.4407 14.7678 18.4407C14.7678 18.4407 14.7678 18.4407 14.7678 18.4407C14.7678 18.4407 14.7678 18.4407 14.7678 18.4407C14.7678 18.4407 14.7678 18.4408 14.7678 18.4408C14.7678 18.4408 14.7678 18.4408 14.7678 18.4408C14.7678 18.4408 14.7678 18.4408 14.7678 18.4408C14.7678 18.4408 14.7678 18.4408 14.7678 18.4408C14.7678 18.4408 14.7678 18.4408 14.7678 18.4408C14.7678 18.4409 14.7678 18.4409 14.7678 18.4409C14.7678 18.4409 14.7678 18.4409 14.7678 18.4409C14.7678 18.4409 14.7678 18.4409 14.7678 18.4409C14.7678 18.4409 14.7678 18.4409 14.7678 18.4409C14.7678 18.4409 14.7678 18.4409 14.7678 18.4409C14.7678 18.441 14.7678 18.441 14.7678 18.441C14.7678 18.441 14.7678 18.441 14.7678 18.441C14.7678 18.441 14.7678 18.441 14.7678 18.441C14.7678 18.441 14.7678 18.441 14.7678 18.441C14.7678 18.441 14.7678 18.441 14.7678 18.4411C14.7678 18.4411 14.7678 18.4411 14.7678 18.4411C14.7678 18.4411 14.7678 18.4411 14.7678 18.4411C14.7678 18.4411 14.7678 18.4411 14.7678 18.4411C14.7678 18.4411 14.7678 18.4411 14.7678 18.4411C14.7678 18.4412 14.7678 18.4412 14.7678 18.4412C14.7678 18.4412 14.7678 18.4412 14.7678 18.4412C14.7678 18.4412 14.7678 18.4412 14.7678 18.4412C14.7678 18.4412 14.7678 18.4412 14.7678 18.4412C14.7678 18.4412 14.7678 18.4413 14.7678 18.4413C14.7678 18.4413 14.7678 18.4413 14.7678 18.4413C14.7678 18.4413 14.7678 18.4413 14.7678 18.4413C14.7678 18.4413 14.7678 18.4413 14.7678 18.4413C14.7678 18.4413 14.7678 18.4413 14.7678 18.4414C14.7678 18.4414 14.7678 18.4414 14.7678 18.4414C14.7678 18.4414 14.7678 18.4414 14.7678 18.4414C14.7678 18.4414 14.7678 18.4414 14.7678 18.4414C14.7678 18.4414 14.7678 18.4414 14.7678 18.4414C14.7678 18.4415 14.7678 18.4415 14.7678 18.4415C14.7678 18.4415 14.7678 18.4415 14.7678 18.4415C14.7678 18.4415 14.7678 18.4415 14.7678 18.4415C14.7678 18.4415 14.7678 18.4415 14.7678 18.4415C14.7678 18.4416 14.7678 18.4416 14.7678 18.4416C14.7678 18.4416 14.7678 18.4416 14.7678 18.4416C14.7678 18.4416 14.7678 18.4416 14.7678 18.4416C14.7678 18.4416 14.7678 18.4416 14.7678 18.4416C14.7678 18.4417 14.7678 18.4417 14.7678 18.4417C14.7678 18.4417 14.7678 18.4417 14.7678 18.4417C14.7678 18.4417 14.7678 18.4417 14.7678 18.4417C14.7678 18.4417 14.7678 18.4417 14.7678 18.4418C14.7678 18.4418 14.7678 18.4418 14.7678 18.4418C14.7678 18.4418 14.7678 18.4418 14.7678 18.4418C14.7678 18.4418 14.7678 18.4418 14.7678 18.4418C14.7678 18.4418 14.7678 18.4418 14.7678 18.4419C14.7678 18.4419 14.7678 18.4419 14.7678 18.4419C14.7678 18.4419 14.7678 18.4419 14.7678 18.4419C14.7678 18.4419 14.7678 18.4419 14.7678 18.4419C14.7678 18.4419 14.7678 18.442 14.7678 18.442C14.7678 18.442 14.7678 18.442 14.7678 18.442C14.7678 18.442 14.7678 18.442 14.7678 18.442C14.7678 18.442 14.7678 18.442 14.7678 18.442C14.7678 18.4421 14.7678 18.4421 14.7678 18.4421C14.7678 18.4421 14.7678 18.4421 14.7678 18.4421C14.7678 18.4421 14.7678 18.4421 14.7678 18.4421C14.7678 18.4421 14.7678 18.4422 14.7678 18.4422C14.7678 18.4422 14.7678 18.4422 14.7678 18.4422C14.7678 18.4422 14.7678 18.4422 14.7678 18.4422C14.7678 18.4422 14.7678 18.4422 14.7678 18.4422C14.7678 18.4423 14.7678 18.4423 14.7678 18.4423C14.7678 18.4423 14.7678 18.4423 14.7678 18.4423C14.7678 18.4423 14.7678 18.4423 14.7678 18.4423C14.7678 18.4423 14.7678 18.4424 14.7678 18.4424C14.7678 18.4424 14.7678 18.4424 14.7678 18.4424C14.7678 18.4424 14.7678 18.4424 14.7678 18.4424C14.7678 18.4424 14.7678 18.4424 14.7678 18.4425C14.7678 18.4425 14.7678 18.4425 14.7678 18.4425C14.7678 18.4425 14.7678 18.4425 14.7678 18.4425C14.7678 18.4425 14.7678 18.4425 14.7678 18.4425C14.7678 18.4426 14.7678 18.4426 14.7678 18.4426C14.7678 18.4426 14.7678 18.4426 14.7678 18.4426C14.7678 18.4426 14.7678 18.4426 14.7678 18.4426C14.7678 18.4426 14.7678 18.4427 14.7678 18.4427C14.7678 18.4427 14.7678 18.4427 14.7678 18.4427C14.7678 18.4427 14.7678 18.4427 14.7678 18.4427C14.7678 18.4427 14.7678 18.4428 14.7678 18.4428C14.7678 18.4428 14.7678 18.4428 14.7678 18.4428C14.7678 18.4428 14.7678 18.4428 14.7678 18.4428C14.7678 18.4428 14.7678 18.4428 14.7678 18.4429C14.7678 18.4429 14.7678 18.4429 14.7678 18.4429C14.7678 18.4429 14.7678 18.4429 14.7678 18.4429C14.7678 18.4429 14.7678 18.4429 14.7678 18.443C14.7678 18.443 14.7678 18.443 14.7678 18.443C14.7678 18.443 14.7678 18.443 14.7678 18.443C14.7678 18.443 14.7678 18.443 14.7678 18.4431C14.7678 18.4431 14.7678 18.4431 14.7678 18.4431C14.7678 18.4431 14.7678 18.4431 14.7678 18.4431C14.7678 18.4431 14.7678 18.4431 14.7678 18.4432C14.7678 18.4432 14.7678 18.4432 14.7678 18.4432C14.7678 18.4432 14.7678 18.4432 14.7678 18.4432C14.7678 18.4432 14.7678 18.4432 14.7678 18.4433C14.7678 18.4433 14.7678 18.4433 14.7678 18.4433C14.7678 18.4433 14.7678 18.4433 14.7678 18.4433C14.7678 18.4433 14.7678 18.4434 14.7678 18.4434C14.7678 18.4434 14.7678 18.4434 14.7678 18.4434C14.7678 18.4434 14.7678 18.4434 14.7678 18.4434C14.7678 18.4434 14.7678 18.4435 14.7678 18.4435C14.7678 18.4435 14.7678 18.4435 14.7678 18.4435C14.7678 18.4435 14.7678 18.4435 14.7678 18.4435C14.7678 18.4436 14.7678 18.4436 14.7678 18.4436C14.7678 18.4436 14.7678 18.4436 14.7678 18.4436C14.7678 18.4436 14.7678 18.4436 14.7678 18.4436C14.7678 18.4437 14.7678 18.4437 14.7678 18.4437C14.7678 18.4437 14.7678 18.4437 14.7678 18.4437C14.7678 18.4437 14.7678 18.4437 14.7678 18.4438C14.7678 18.4438 14.7678 18.4438 14.7678 18.4438C14.7678 18.4438 14.7678 18.4438 14.7678 18.4438C14.7678 18.4438 14.7678 18.4439 14.7678 18.4439C14.7678 18.4439 14.7678 18.4439 14.7678 18.4439C14.7678 18.4439 14.7678 18.4439 14.7678 18.4439C14.7678 18.444 14.7678 18.444 14.7678 18.444C14.7678 18.444 14.7678 18.444 14.7678 18.444C14.7678 18.444 14.7678 18.444 14.7678 18.4441C14.7678 18.4441 14.7678 18.4441 14.7678 18.4441C14.7678 18.4441 14.7678 18.4441 14.7678 18.4441C14.7678 18.4441 14.7678 18.4442 14.7678 18.4442C14.7678 18.4442 14.7678 18.4442 14.7678 18.4442C14.7678 18.4442 14.7678 18.4442 14.7678 18.4443C14.7678 18.4443 14.7678 18.4443 14.7678 18.4443C14.7678 18.4443 14.7678 18.4443 14.7678 18.4443C14.7678 18.4443 14.7678 18.4444 14.7678 18.4444C14.7678 18.4444 14.7678 18.4444 14.7678 18.4444C14.7678 18.4444 14.7678 18.4444 14.7678 18.4445C14.7678 18.4445 14.7678 18.4445 14.7678 18.4445C14.7678 18.4445 14.7678 18.4445 14.7678 18.4445C14.7678 18.4445 14.7678 18.4446 14.7678 18.4446C14.7678 18.4446 14.7678 18.4446 14.7678 18.4446C14.7678 18.4446 14.7678 18.4446 14.7678 18.4447C14.7678 18.4447 14.7678 18.4447 14.7678 18.4447C14.7678 18.4447 14.7678 18.4447 14.7678 18.4447C14.7678 18.4448 14.7678 18.4448 14.7678 18.4448C14.7678 18.4448 14.7678 18.4448 14.7678 18.4448C14.7678 18.4448 14.7678 18.4448 14.7678 18.4449C14.7678 18.4449 14.7678 18.4449 14.7678 18.4449C14.7678 18.4449 14.7678 18.4449 14.7678 18.4449C14.7678 18.445 14.7678 18.445 14.7678 18.445C14.7678 18.445 14.7678 18.445 14.7678 18.445C14.7678 18.445 14.7678 18.4451 14.7678 18.4451C14.7678 18.4451 14.7678 18.4451 14.7678 18.4451C14.7678 18.4451 14.7678 18.4451 14.7678 18.4452C14.7678 18.4452 14.7678 18.4452 14.7678 18.4452C14.7678 18.4452 14.7678 18.4452 14.7678 18.4453C14.7678 18.4453 14.7678 18.4453 14.7678 18.4453C14.7678 18.4453 14.7678 18.4453 14.7678 18.4453C14.7678 18.4454 14.7678 18.4454 14.7678 18.4454C14.7678 18.4454 14.7678 18.4454 14.7678 18.4454C14.7678 18.4454 14.7678 18.4455 14.7678 18.4455C14.7678 18.4455 14.7678 18.4455 14.7678 18.4455C14.7678 18.4455 14.7678 18.4455 14.7678 18.4456C14.7678 18.4456 14.7678 18.4456 14.7678 18.4456C14.7678 18.4456 14.7678 18.4456 14.7678 18.4457C14.7678 18.4457 14.7678 18.4457 14.7678 18.4457C14.7678 18.4457 14.7678 18.4457 14.7678 18.4457C14.7678 18.4458 14.7678 18.4458 14.7678 18.4458C14.7678 18.4458 14.7678 18.4458 14.7678 18.4458C14.7678 18.4459 14.7678 18.4459 14.7678 18.4459C14.7678 18.4459 14.7678 18.4459 14.7678 18.4459C14.7678 18.4459 14.7678 18.446 14.7678 18.446C14.7678 18.446 14.7678 18.446 14.7678 18.446C14.7678 18.446 14.7678 18.4461 14.7678 18.4461C14.7678 18.4461 14.7678 18.4461 14.7678 18.4461C14.7678 18.4461 14.7678 18.4462 14.7678 18.4462C14.7678 18.4462 14.7678 18.4462 14.7678 18.4462C14.7678 18.4462 14.7678 18.4462 14.7678 18.4463C14.7678 18.4463 14.7678 18.4463 14.7678 18.4463C14.7678 18.4463 14.7678 18.4463 14.7678 18.4464C14.7678 18.4464 14.7678 18.4464 14.7678 18.4464C14.7678 18.4464 14.7678 18.4464 14.7678 18.4465C14.7678 18.4465 14.7678 18.4465 14.7678 18.4465C14.7678 18.4465 14.7678 18.4465 14.7678 18.4466C14.7678 18.4466 14.7678 18.4466 14.7678 18.4466C14.7678 18.4466 14.7678 18.4466 14.7678 18.4467C14.7678 18.4467 14.7678 18.4467 14.7678 18.4467C14.7678 18.4467 14.7678 18.4467 14.7678 18.4468C14.7678 18.4468 14.7678 18.4468 14.7678 18.4468C14.7678 18.4468 14.7678 18.4468 14.7678 18.4469C14.7678 18.4469 14.7678 18.4469 14.7678 18.4469C14.7678 18.4469 14.7678 18.4469 14.7678 18.447C14.7678 18.447 14.7678 18.447 14.7678 18.447C14.7678 18.447 14.7678 18.447 14.7678 18.4471C14.7678 18.4471 14.7678 18.4471 14.7678 18.4471C14.7678 18.4471 14.7678 18.4472 14.7678 18.4472C14.7678 18.4472 14.7678 18.4472 14.7678 18.4472C14.7678 18.4472 14.7678 18.4473 14.7678 18.4473C14.7678 18.4473 14.7678 18.4473 14.7678 18.4473C14.7678 18.4473 14.7678 18.4474 14.7678 18.4474C14.7678 18.4474 14.7678 18.4474 14.7678 18.4474C14.7678 18.4475 14.7678 18.4475 14.7678 18.4475C14.7678 18.4475 14.7678 18.4475 14.7678 18.4475C14.7678 18.4476 14.7678 18.4476 14.7678 18.4476C14.7678 18.4476 14.7678 18.4476 14.7678 18.4476C14.7678 18.4477 14.7678 18.4477 14.7678 18.4477C14.7678 18.4477 14.7678 18.4477 14.7678 18.4478C14.7678 18.4478 14.7678 18.4478 14.7678 18.4478C14.7678 18.4478 14.7678 18.4478 14.7678 18.4479C14.7678 18.4479 14.7678 18.4479 14.7678 18.4479C14.7678 18.4479 14.7678 18.448 14.7678 18.448C14.7678 18.448 14.7678 18.448 14.7678 18.448C14.7678 18.4481 14.7678 18.4481 14.7678 18.4481C14.7678 18.4481 14.7678 18.4481 14.7678 18.4481C14.7678 18.4482 14.7678 18.4482 14.7678 18.4482C14.7678 18.4482 14.7678 18.4482 14.7678 18.4483C14.7678 18.4483 14.7678 18.4483 14.7678 18.4483C14.7678 18.4483 14.7678 18.4484 14.7678 18.4484C14.7678 18.4484 14.7678 18.4484 14.7678 18.4484C14.7678 18.4484 14.7678 18.4485 14.7678 18.4485C14.7678 18.4485 14.7678 18.4485 14.7678 18.4485C14.7678 18.4486 14.7678 18.4486 14.7678 18.4486C14.7678 18.4486 14.7678 18.4486 14.7678 18.4487C14.7678 18.4487 14.7678 18.4487 14.7678 18.4487C14.7678 18.4487 14.7678 18.4488 14.7678 18.4488H17.7678C17.7678 18.4488 17.7678 18.4487 17.7678 18.4487C17.7678 18.4487 17.7678 18.4487 17.7678 18.4487C17.7678 18.4486 17.7678 18.4486 17.7678 18.4486C17.7678 18.4486 17.7678 18.4486 17.7678 18.4485C17.7678 18.4485 17.7678 18.4485 17.7678 18.4485C17.7678 18.4485 17.7678 18.4484 17.7678 18.4484C17.7678 18.4484 17.7678 18.4484 17.7678 18.4484C17.7678 18.4484 17.7678 18.4483 17.7678 18.4483C17.7678 18.4483 17.7678 18.4483 17.7678 18.4483C17.7678 18.4482 17.7678 18.4482 17.7678 18.4482C17.7678 18.4482 17.7678 18.4482 17.7678 18.4481C17.7678 18.4481 17.7678 18.4481 17.7678 18.4481C17.7678 18.4481 17.7678 18.4481 17.7678 18.448C17.7678 18.448 17.7678 18.448 17.7678 18.448C17.7678 18.448 17.7678 18.4479 17.7678 18.4479C17.7678 18.4479 17.7678 18.4479 17.7678 18.4479C17.7678 18.4478 17.7678 18.4478 17.7678 18.4478C17.7678 18.4478 17.7678 18.4478 17.7678 18.4478C17.7678 18.4477 17.7678 18.4477 17.7678 18.4477C17.7678 18.4477 17.7678 18.4477 17.7678 18.4476C17.7678 18.4476 17.7678 18.4476 17.7678 18.4476C17.7678 18.4476 17.7678 18.4476 17.7678 18.4475C17.7678 18.4475 17.7678 18.4475 17.7678 18.4475C17.7678 18.4475 17.7678 18.4475 17.7678 18.4474C17.7678 18.4474 17.7678 18.4474 17.7678 18.4474C17.7678 18.4474 17.7678 18.4473 17.7678 18.4473C17.7678 18.4473 17.7678 18.4473 17.7678 18.4473C17.7678 18.4473 17.7678 18.4472 17.7678 18.4472C17.7678 18.4472 17.7678 18.4472 17.7678 18.4472C17.7678 18.4472 17.7678 18.4471 17.7678 18.4471C17.7678 18.4471 17.7678 18.4471 17.7678 18.4471C17.7678 18.447 17.7678 18.447 17.7678 18.447C17.7678 18.447 17.7678 18.447 17.7678 18.447C17.7678 18.4469 17.7678 18.4469 17.7678 18.4469C17.7678 18.4469 17.7678 18.4469 17.7678 18.4469C17.7678 18.4468 17.7678 18.4468 17.7678 18.4468C17.7678 18.4468 17.7678 18.4468 17.7678 18.4468C17.7678 18.4467 17.7678 18.4467 17.7678 18.4467C17.7678 18.4467 17.7678 18.4467 17.7678 18.4467C17.7678 18.4466 17.7678 18.4466 17.7678 18.4466C17.7678 18.4466 17.7678 18.4466 17.7678 18.4466C17.7678 18.4465 17.7678 18.4465 17.7678 18.4465C17.7678 18.4465 17.7678 18.4465 17.7678 18.4465C17.7678 18.4464 17.7678 18.4464 17.7678 18.4464C17.7678 18.4464 17.7678 18.4464 17.7678 18.4464C17.7678 18.4463 17.7678 18.4463 17.7678 18.4463C17.7678 18.4463 17.7678 18.4463 17.7678 18.4463C17.7678 18.4462 17.7678 18.4462 17.7678 18.4462C17.7678 18.4462 17.7678 18.4462 17.7678 18.4462C17.7678 18.4462 17.7678 18.4461 17.7678 18.4461C17.7678 18.4461 17.7678 18.4461 17.7678 18.4461C17.7678 18.4461 17.7678 18.446 17.7678 18.446C17.7678 18.446 17.7678 18.446 17.7678 18.446C17.7678 18.446 17.7678 18.4459 17.7678 18.4459C17.7678 18.4459 17.7678 18.4459 17.7678 18.4459C17.7678 18.4459 17.7678 18.4459 17.7678 18.4458C17.7678 18.4458 17.7678 18.4458 17.7678 18.4458C17.7678 18.4458 17.7678 18.4458 17.7678 18.4457C17.7678 18.4457 17.7678 18.4457 17.7678 18.4457C17.7678 18.4457 17.7678 18.4457 17.7678 18.4457C17.7678 18.4456 17.7678 18.4456 17.7678 18.4456C17.7678 18.4456 17.7678 18.4456 17.7678 18.4456C17.7678 18.4455 17.7678 18.4455 17.7678 18.4455C17.7678 18.4455 17.7678 18.4455 17.7678 18.4455C17.7678 18.4455 17.7678 18.4454 17.7678 18.4454C17.7678 18.4454 17.7678 18.4454 17.7678 18.4454C17.7678 18.4454 17.7678 18.4454 17.7678 18.4453C17.7678 18.4453 17.7678 18.4453 17.7678 18.4453C17.7678 18.4453 17.7678 18.4453 17.7678 18.4453C17.7678 18.4452 17.7678 18.4452 17.7678 18.4452C17.7678 18.4452 17.7678 18.4452 17.7678 18.4452C17.7678 18.4451 17.7678 18.4451 17.7678 18.4451C17.7678 18.4451 17.7678 18.4451 17.7678 18.4451C17.7678 18.4451 17.7678 18.445 17.7678 18.445C17.7678 18.445 17.7678 18.445 17.7678 18.445C17.7678 18.445 17.7678 18.445 17.7678 18.4449C17.7678 18.4449 17.7678 18.4449 17.7678 18.4449C17.7678 18.4449 17.7678 18.4449 17.7678 18.4449C17.7678 18.4448 17.7678 18.4448 17.7678 18.4448C17.7678 18.4448 17.7678 18.4448 17.7678 18.4448C17.7678 18.4448 17.7678 18.4448 17.7678 18.4447C17.7678 18.4447 17.7678 18.4447 17.7678 18.4447C17.7678 18.4447 17.7678 18.4447 17.7678 18.4447C17.7678 18.4446 17.7678 18.4446 17.7678 18.4446C17.7678 18.4446 17.7678 18.4446 17.7678 18.4446C17.7678 18.4446 17.7678 18.4445 17.7678 18.4445C17.7678 18.4445 17.7678 18.4445 17.7678 18.4445C17.7678 18.4445 17.7678 18.4445 17.7678 18.4445C17.7678 18.4444 17.7678 18.4444 17.7678 18.4444C17.7678 18.4444 17.7678 18.4444 17.7678 18.4444C17.7678 18.4444 17.7678 18.4443 17.7678 18.4443C17.7678 18.4443 17.7678 18.4443 17.7678 18.4443C17.7678 18.4443 17.7678 18.4443 17.7678 18.4443C17.7678 18.4442 17.7678 18.4442 17.7678 18.4442C17.7678 18.4442 17.7678 18.4442 17.7678 18.4442C17.7678 18.4442 17.7678 18.4441 17.7678 18.4441C17.7678 18.4441 17.7678 18.4441 17.7678 18.4441C17.7678 18.4441 17.7678 18.4441 17.7678 18.4441C17.7678 18.444 17.7678 18.444 17.7678 18.444C17.7678 18.444 17.7678 18.444 17.7678 18.444C17.7678 18.444 17.7678 18.444 17.7678 18.4439C17.7678 18.4439 17.7678 18.4439 17.7678 18.4439C17.7678 18.4439 17.7678 18.4439 17.7678 18.4439C17.7678 18.4439 17.7678 18.4438 17.7678 18.4438C17.7678 18.4438 17.7678 18.4438 17.7678 18.4438C17.7678 18.4438 17.7678 18.4438 17.7678 18.4438C17.7678 18.4437 17.7678 18.4437 17.7678 18.4437C17.7678 18.4437 17.7678 18.4437 17.7678 18.4437C17.7678 18.4437 17.7678 18.4437 17.7678 18.4436C17.7678 18.4436 17.7678 18.4436 17.7678 18.4436C17.7678 18.4436 17.7678 18.4436 17.7678 18.4436C17.7678 18.4436 17.7678 18.4436 17.7678 18.4435C17.7678 18.4435 17.7678 18.4435 17.7678 18.4435C17.7678 18.4435 17.7678 18.4435 17.7678 18.4435C17.7678 18.4435 17.7678 18.4434 17.7678 18.4434C17.7678 18.4434 17.7678 18.4434 17.7678 18.4434C17.7678 18.4434 17.7678 18.4434 17.7678 18.4434C17.7678 18.4434 17.7678 18.4433 17.7678 18.4433C17.7678 18.4433 17.7678 18.4433 17.7678 18.4433C17.7678 18.4433 17.7678 18.4433 17.7678 18.4433C17.7678 18.4432 17.7678 18.4432 17.7678 18.4432C17.7678 18.4432 17.7678 18.4432 17.7678 18.4432C17.7678 18.4432 17.7678 18.4432 17.7678 18.4432C17.7678 18.4431 17.7678 18.4431 17.7678 18.4431C17.7678 18.4431 17.7678 18.4431 17.7678 18.4431C17.7678 18.4431 17.7678 18.4431 17.7678 18.4431C17.7678 18.443 17.7678 18.443 17.7678 18.443C17.7678 18.443 17.7678 18.443 17.7678 18.443C17.7678 18.443 17.7678 18.443 17.7678 18.443C17.7678 18.4429 17.7678 18.4429 17.7678 18.4429C17.7678 18.4429 17.7678 18.4429 17.7678 18.4429C17.7678 18.4429 17.7678 18.4429 17.7678 18.4429C17.7678 18.4428 17.7678 18.4428 17.7678 18.4428C17.7678 18.4428 17.7678 18.4428 17.7678 18.4428C17.7678 18.4428 17.7678 18.4428 17.7678 18.4428C17.7678 18.4428 17.7678 18.4427 17.7678 18.4427C17.7678 18.4427 17.7678 18.4427 17.7678 18.4427C17.7678 18.4427 17.7678 18.4427 17.7678 18.4427C17.7678 18.4427 17.7678 18.4426 17.7678 18.4426C17.7678 18.4426 17.7678 18.4426 17.7678 18.4426C17.7678 18.4426 17.7678 18.4426 17.7678 18.4426C17.7678 18.4426 17.7678 18.4426 17.7678 18.4425C17.7678 18.4425 17.7678 18.4425 17.7678 18.4425C17.7678 18.4425 17.7678 18.4425 17.7678 18.4425C17.7678 18.4425 17.7678 18.4425 17.7678 18.4425C17.7678 18.4424 17.7678 18.4424 17.7678 18.4424C17.7678 18.4424 17.7678 18.4424 17.7678 18.4424C17.7678 18.4424 17.7678 18.4424 17.7678 18.4424C17.7678 18.4424 17.7678 18.4423 17.7678 18.4423C17.7678 18.4423 17.7678 18.4423 17.7678 18.4423C17.7678 18.4423 17.7678 18.4423 17.7678 18.4423C17.7678 18.4423 17.7678 18.4423 17.7678 18.4422C17.7678 18.4422 17.7678 18.4422 17.7678 18.4422C17.7678 18.4422 17.7678 18.4422 17.7678 18.4422C17.7678 18.4422 17.7678 18.4422 17.7678 18.4422C17.7678 18.4422 17.7678 18.4421 17.7678 18.4421C17.7678 18.4421 17.7678 18.4421 17.7678 18.4421C17.7678 18.4421 17.7678 18.4421 17.7678 18.4421C17.7678 18.4421 17.7678 18.4421 17.7678 18.442C17.7678 18.442 17.7678 18.442 17.7678 18.442C17.7678 18.442 17.7678 18.442 17.7678 18.442C17.7678 18.442 17.7678 18.442 17.7678 18.442C17.7678 18.442 17.7678 18.4419 17.7678 18.4419C17.7678 18.4419 17.7678 18.4419 17.7678 18.4419C17.7678 18.4419 17.7678 18.4419 17.7678 18.4419C17.7678 18.4419 17.7678 18.4419 17.7678 18.4419C17.7678 18.4418 17.7678 18.4418 17.7678 18.4418C17.7678 18.4418 17.7678 18.4418 17.7678 18.4418C17.7678 18.4418 17.7678 18.4418 17.7678 18.4418C17.7678 18.4418 17.7678 18.4418 17.7678 18.4418C17.7678 18.4417 17.7678 18.4417 17.7678 18.4417C17.7678 18.4417 17.7678 18.4417 17.7678 18.4417C17.7678 18.4417 17.7678 18.4417 17.7678 18.4417C17.7678 18.4417 17.7678 18.4417 17.7678 18.4416C17.7678 18.4416 17.7678 18.4416 17.7678 18.4416C17.7678 18.4416 17.7678 18.4416 17.7678 18.4416C17.7678 18.4416 17.7678 18.4416 17.7678 18.4416C17.7678 18.4416 17.7678 18.4416 17.7678 18.4415C17.7678 18.4415 17.7678 18.4415 17.7678 18.4415C17.7678 18.4415 17.7678 18.4415 17.7678 18.4415C17.7678 18.4415 17.7678 18.4415 17.7678 18.4415C17.7678 18.4415 17.7678 18.4415 17.7678 18.4414C17.7678 18.4414 17.7678 18.4414 17.7678 18.4414C17.7678 18.4414 17.7678 18.4414 17.7678 18.4414C17.7678 18.4414 17.7678 18.4414 17.7678 18.4414C17.7678 18.4414 17.7678 18.4414 17.7678 18.4414C17.7678 18.4413 17.7678 18.4413 17.7678 18.4413C17.7678 18.4413 17.7678 18.4413 17.7678 18.4413C17.7678 18.4413 17.7678 18.4413 17.7678 18.4413C17.7678 18.4413 17.7678 18.4413 17.7678 18.4413C17.7678 18.4413 17.7678 18.4412 17.7678 18.4412C17.7678 18.4412 17.7678 18.4412 17.7678 18.4412C17.7678 18.4412 17.7678 18.4412 17.7678 18.4412C17.7678 18.4412 17.7678 18.4412 17.7678 18.4412C17.7678 18.4412 17.7678 18.4412 17.7678 18.4411C17.7678 18.4411 17.7678 18.4411 17.7678 18.4411C17.7678 18.4411 17.7678 18.4411 17.7678 18.4411C17.7678 18.4411 17.7678 18.4411 17.7678 18.4411C17.7678 18.4411 17.7678 18.4411 17.7678 18.4411C17.7678 18.441 17.7678 18.441 17.7678 18.441C17.7678 18.441 17.7678 18.441 17.7678 18.441C17.7678 18.441 17.7678 18.441 17.7678 18.441C17.7678 18.441 17.7678 18.441 17.7678 18.441C17.7678 18.441 17.7678 18.441 17.7678 18.4409C17.7678 18.4409 17.7678 18.4409 17.7678 18.4409C17.7678 18.4409 17.7678 18.4409 17.7678 18.4409C17.7678 18.4409 17.7678 18.4409 17.7678 18.4409C17.7678 18.4409 17.7678 18.4409 17.7678 18.4409C17.7678 18.4409 17.7678 18.4409 17.7678 18.4408C17.7678 18.4408 17.7678 18.4408 17.7678 18.4408C17.7678 18.4408 17.7678 18.4408 17.7678 18.4408C17.7678 18.4408 17.7678 18.4408 17.7678 18.4408C17.7678 18.4408 17.7678 18.4408 17.7678 18.4408C17.7678 18.4408 17.7678 18.4407 17.7678 18.4407C17.7678 18.4407 17.7678 18.4407 17.7678 18.4407C17.7678 18.4407 17.7678 18.4407 17.7678 18.4407C17.7678 18.4407 17.7678 18.4407 17.7678 18.4407C17.7678 18.4407 17.7678 18.4407 17.7678 18.4407C17.7678 18.4407 17.7678 18.4407 17.7678 18.4406C17.7678 18.4406 17.7678 18.4406 17.7678 18.4406C17.7678 18.4406 17.7678 18.4406 17.7678 18.4406C17.7678 18.4406 17.7678 18.4406 17.7678 18.4406C17.7678 18.4406 17.7678 18.4406 17.7678 18.4406C17.7678 18.4406 17.7678 18.4406 17.7678 18.4405C17.7678 18.4405 17.7678 18.4405 17.7678 18.4405C17.7678 18.4405 17.7678 18.4405 17.7678 18.4405C17.7678 18.4405 17.7678 18.4405 17.7678 18.4405C17.7678 18.4405 17.7678 18.4405 17.7678 18.4405C17.7678 18.4405 17.7678 18.4405 17.7678 18.4405C17.7678 18.4405 17.7678 18.4404 17.7678 18.4404C17.7678 18.4404 17.7678 18.4404 17.7678 18.4404C17.7678 18.4404 17.7678 18.4404 17.7678 18.4404C17.7678 18.4404 17.7678 18.4404 17.7678 18.4404C17.7678 18.4404 17.7678 18.4404 17.7678 18.4404C17.7678 18.4404 17.7678 18.4404 17.7678 18.4404C17.7678 18.4403 17.7678 18.4403 17.7678 18.4403C17.7678 18.4403 17.7678 18.4403 17.7678 18.4403C17.7678 18.4403 17.7678 18.4403 17.7678 18.4403C17.7678 18.4403 17.7678 18.4403 17.7678 18.4403C17.7678 18.4403 17.7678 18.4403 17.7678 18.4403C17.7678 18.4403 17.7678 18.4403 17.7678 18.4403C17.7678 18.4402 17.7678 18.4402 17.7678 18.4402C17.7678 18.4402 17.7678 18.4402 17.7678 18.4402C17.7678 18.4402 17.7678 18.4402 17.7678 18.4402C17.7678 18.4402 17.7678 18.4402 17.7678 18.4402C17.7678 18.4402 17.7678 18.4402 17.7678 18.4402C17.7678 18.4402 17.7678 18.4402 17.7678 18.4402C17.7678 18.4402 17.7678 18.4401 17.7678 18.4401C17.7678 18.4401 17.7678 18.4401 17.7678 18.4401C17.7678 18.4401 17.7678 18.4401 17.7678 18.4401C17.7678 18.4401 17.7678 18.4401 17.7678 18.4401C17.7678 18.4401 17.7678 18.4401 17.7678 18.4401C17.7678 18.4401 17.7678 18.4401 17.7678 18.4401C17.7678 18.4401 17.7678 18.4401 17.7678 18.44C17.7678 18.44 17.7678 18.44 17.7678 18.44C17.7678 18.44 17.7678 18.44 17.7678 18.44C17.7678 18.44 17.7678 18.44 17.7678 18.44C17.7678 18.44 17.7678 18.44 17.7678 18.44C17.7678 18.44 17.7678 18.44 17.7678 18.44C17.7678 18.44 17.7678 18.44 17.7678 18.44C17.7678 18.44 17.7678 18.44 17.7678 18.4399C17.7678 18.4399 17.7678 18.4399 17.7678 18.4399C17.7678 18.4399 17.7678 18.4399 17.7678 18.4399C17.7678 18.4399 17.7678 18.4399 17.7678 18.4399C17.7678 18.4399 17.7678 18.4399 17.7678 18.4399C17.7678 18.4399 17.7678 18.4399 17.7678 18.4399C17.7678 18.4399 17.7678 18.4399 17.7678 18.4399C17.7678 18.4399 17.7678 18.4399 17.7678 18.4399C17.7678 18.4398 17.7678 18.4398 17.7678 18.4398C17.7678 18.4398 17.7678 18.4398 17.7678 18.4398C17.7678 18.4398 17.7678 18.4398 17.7678 18.4398C17.7678 18.4398 17.7678 18.4398 17.7678 18.4398C17.7678 18.4398 17.7678 18.4398 17.7678 18.4398C17.7678 18.4398 17.7678 18.4398 17.7678 18.4398C17.7678 18.4398 17.7678 18.4398 17.7678 18.4398C17.7678 18.4398 17.7678 18.4398 17.7678 18.4397C17.7678 18.4397 17.7678 18.4397 17.7678 18.4397C17.7678 18.4397 17.7678 18.4397 17.7678 18.4397C17.7678 18.4397 17.7678 18.4397 17.7678 18.4397C17.7678 18.4397 17.7678 18.4397 17.7678 18.4397C17.7678 18.4397 17.7678 18.4397 17.7678 18.4397C17.7678 18.4397 17.7678 18.4397 17.7678 18.4397C17.7678 18.4397 17.7678 18.4397 17.7678 18.4397C17.7678 18.4397 17.7678 18.4397 17.7678 18.4397C17.7678 18.4396 17.7678 18.4396 17.7678 18.4396C17.7678 18.4396 17.7678 18.4396 17.7678 18.4396C17.7678 18.4396 17.7678 18.4396 17.7678 18.4396C17.7678 18.4396 17.7678 18.4396 17.7678 18.4396C17.7678 18.4396 17.7678 18.4396 17.7678 18.4396C17.7678 18.4396 17.7678 18.4396 17.7678 18.4396C17.7678 18.4396 17.7678 18.4396 17.7678 18.4396C17.7678 18.4396 17.7678 18.4396 17.7678 18.4396C17.7678 18.4396 17.7678 18.4396 17.7678 18.4396C17.7678 18.4395 17.7678 18.4395 17.7678 18.4395C17.7678 18.4395 17.7678 18.4395 17.7678 18.4395C17.7678 18.4395 17.7678 18.4395 17.7678 18.4395C17.7678 18.4395 17.7678 18.4395 17.7678 18.4395C17.7678 18.4395 17.7678 18.4395 17.7678 18.4395C17.7678 18.4395 17.7678 18.4395 17.7678 18.4395C17.7678 18.4395 17.7678 18.4395 17.7678 18.4395C17.7678 18.4395 17.7678 18.4395 17.7678 18.4395C17.7678 18.4395 17.7678 18.4395 17.7678 18.4395C17.7678 18.4395 17.7678 18.4395 17.7678 18.4395C17.7678 18.4394 17.7678 18.4394 17.7678 18.4394C17.7678 18.4394 17.7678 18.4394 17.7678 18.4394C17.7678 18.4394 17.7678 18.4394 17.7678 18.4394C17.7678 18.4394 17.7678 18.4394 17.7678 18.4394C17.7678 18.4394 17.7678 18.4394 17.7678 18.4394C17.7678 18.4394 17.7678 18.4394 17.7678 18.4394C17.7678 18.4394 17.7678 18.4394 17.7678 18.4394C17.7678 18.4394 17.7678 18.4394 17.7678 18.4394C17.7678 18.4394 17.7678 18.4394 17.7678 18.4394C17.7678 18.4394 17.7678 18.4394 17.7678 18.4394C17.7678 18.4394 17.7678 18.4394 17.7678 18.4393C17.7678 18.4393 17.7678 18.4393 17.7678 18.4393C17.7678 18.4393 17.7678 18.4393 17.7678 18.4393C17.7678 18.4393 17.7678 18.4393 17.7678 18.4393C17.7678 18.4393 17.7678 18.4393 17.7678 18.4393C17.7678 18.4393 17.7678 18.4393 17.7678 18.4393C17.7678 18.4393 17.7678 18.4393 17.7678 18.4393C17.7678 18.4393 17.7678 18.4393 17.7678 18.4393C17.7678 18.4393 17.7678 18.4393 17.7678 18.4393C17.7678 18.4393 17.7678 18.4393 17.7678 18.4393C17.7678 18.4393 17.7678 18.4393 17.7678 18.4393C17.7678 18.4393 17.7678 18.4393 17.7678 18.4393C17.7678 18.4393 17.7678 18.4393 17.7678 18.4392C17.7678 18.4392 17.7678 18.4392 17.7678 18.4392C17.7678 18.4392 17.7678 18.4392 17.7678 18.4392C17.7678 18.4392 17.7678 18.4392 17.7678 18.4392C17.7678 18.4392 17.7678 18.4392 17.7678 18.4392C17.7678 18.4392 17.7678 18.4392 17.7678 18.4392C17.7678 18.4392 17.7678 18.4392 17.7678 18.4392C17.7678 18.4392 17.7678 18.4392 17.7678 18.4392C17.7678 18.4392 17.7678 18.4392 17.7678 18.4392C17.7678 18.4392 17.7678 18.4392 17.7678 18.4392C17.7678 18.4392 17.7678 18.4392 17.7678 18.4392C17.7678 18.4392 17.7678 18.4392 17.7678 18.4392C17.7678 18.4392 17.7678 18.4392 17.7678 18.4392C17.7678 18.4392 17.7678 18.4392 17.7678 18.4392C17.7678 18.4392 17.7678 18.4392 17.7678 18.4391C17.7678 18.4391 17.7678 18.4391 17.7678 18.4391C17.7678 18.4391 17.7678 18.4391 17.7678 18.4391C17.7678 18.4391 17.7678 18.4391 17.7678 18.4391C17.7678 18.4391 17.7678 18.4391 17.7678 18.4391C17.7678 18.4391 17.7678 18.4391 17.7678 18.4391C17.7678 18.4391 17.7678 18.4391 17.7678 18.4391C17.7678 18.4391 17.7678 18.4391 17.7678 18.4391C17.7678 18.4391 17.7678 18.4391 17.7678 18.4391C17.7678 18.4391 17.7678 18.4391 17.7678 18.4391C17.7678 18.4391 17.7678 18.4391 17.7678 18.4391C17.7678 18.4391 17.7678 18.4391 17.7678 18.4391C17.7678 18.4391 17.7678 18.4391 17.7678 18.4391C17.7678 18.4391 17.7678 18.4391 17.7678 18.4391C17.7678 18.4391 17.7678 18.4391 17.7678 18.4391C17.7678 18.4391 17.7678 18.4391 17.7678 18.4391C17.7678 18.4391 17.7678 18.4391 17.7678 18.4391C17.7678 18.4391 17.7678 18.439 17.7678 18.439C17.7678 18.439 17.7678 18.439 17.7678 18.439C17.7678 18.439 17.7678 18.439 17.7678 18.439C17.7678 18.439 17.7678 18.439 17.7678 18.439C17.7678 18.439 17.7678 18.439 17.7678 18.439C17.7678 18.439 17.7678 18.439 17.7678 18.439C17.7678 18.439 17.7678 18.439 17.7678 18.439C17.7678 18.439 17.7678 18.439 17.7678 18.439C17.7678 18.439 17.7678 18.439 17.7678 18.439C17.7678 18.439 17.7678 18.439 17.7678 18.439C17.7678 18.439 17.7678 18.439 17.7678 18.439C17.7678 18.439 17.7678 18.439 17.7678 18.439C17.7678 18.439 17.7678 18.439 17.7678 18.439C17.7678 18.439 17.7678 18.439 17.7678 18.439C17.7678 18.439 17.7678 18.439 17.7678 18.439C17.7678 18.439 17.7678 18.439 17.7678 18.439C17.7678 18.439 17.7678 18.439 17.7678 18.439C17.7678 18.439 17.7678 18.439 17.7678 18.439C17.7678 18.439 17.7678 18.439 17.7678 18.439C17.7678 18.439 17.7678 18.439 17.7678 18.439C17.7678 18.439 17.7678 18.439 17.7678 18.439C17.7678 18.439 17.7678 18.4389 17.7678 18.4389C17.7678 18.4389 17.7678 18.4389 17.7678 18.4389C17.7678 18.4389 17.7678 18.4389 17.7678 18.4389C17.7678 18.4389 17.7678 18.4389 17.7678 18.4389C17.7678 18.4389 17.7678 18.4389 17.7678 18.4389C17.7678 18.4389 17.7678 18.4389 17.7678 18.4389C17.7678 18.4389 17.7678 18.4389 17.7678 18.4389C17.7678 18.4389 17.7678 18.4389 17.7678 18.4389C17.7678 18.4389 17.7678 18.4389 17.7678 18.4389C17.7678 18.4389 17.7678 18.4389 17.7678 18.4389C17.7678 18.4389 17.7678 18.4389 17.7678 18.4389C17.7678 18.4389 17.7678 18.4389 17.7678 18.4389C17.7678 18.4389 17.7678 18.4389 17.7678 18.4389C17.7678 18.4389 17.7678 18.4389 17.7678 18.4389C17.7678 18.4389 17.7678 18.4389 17.7678 18.4389C17.7678 18.4389 17.7678 18.4389 17.7678 18.4389C17.7678 18.4389 17.7678 18.4389 17.7678 18.4389C17.7678 18.4389 17.7678 18.4389 17.7678 18.4389C17.7678 18.4389 17.7678 18.4389 17.7678 18.4389C17.7678 18.4389 17.7678 18.4389 17.7678 18.4389C17.7678 18.4389 17.7678 18.4389 17.7678 18.4389C17.7678 18.4389 17.7678 18.4389 17.7678 18.4389C17.7678 18.4389 17.7678 18.4389 17.7678 18.4389C17.7678 18.4389 17.7678 18.4389 17.7678 18.4389C17.7678 18.4389 17.7678 18.4389 17.7678 18.4389C17.7678 18.4389 17.7678 18.4389 17.7678 18.4389C17.7678 18.4389 17.7678 18.4389 17.7678 18.4389C17.7678 18.4389 17.7678 18.4389 17.7678 18.4389C17.7678 18.4389 17.7678 18.4389 17.7678 18.4389C17.7678 18.4389 17.7678 18.4389 17.7678 18.4389C17.7678 18.4389 17.7678 18.4389 17.7678 18.4389C17.7678 18.4389 17.7678 18.4389 17.7678 18.4389C17.7678 18.4389 17.7678 18.4388 17.7678 18.4388C17.7678 18.4388 17.7678 18.4388 17.7678 18.4388C17.7678 18.4388 17.7678 18.4388 17.7678 18.4388C17.7678 18.4388 17.7678 18.4388 17.7678 18.4388C17.7678 18.4388 17.7678 18.4388 17.7678 18.4388C17.7678 18.4388 17.7678 18.4388 17.7678 18.4388C17.7678 18.4388 17.7678 18.4388 17.7678 18.4388C17.7678 18.4388 17.7678 18.4388 17.7678 18.4388C17.7678 18.4388 17.7678 18.4388 17.7678 18.4388C17.7678 18.4388 17.7678 18.4388 17.7678 18.4388C17.7678 18.4388 17.7678 18.4388 17.7678 18.4388C17.7678 18.4388 17.7678 18.4388 17.7678 18.4388C17.7678 18.4388 17.7678 18.4388 17.7678 18.4388C17.7678 18.4388 17.7678 18.4388 17.7678 18.4388C17.7678 18.4388 17.7678 18.4388 17.7678 18.4388C17.7678 18.4388 17.7678 18.4388 17.7678 18.4388V18.4388C17.7678 18.4388 17.7678 18.4388 17.7678 18.4388C17.7678 18.4388 17.7678 18.4388 17.7678 18.4388V18.4388C17.7678 18.4388 17.7678 18.4388 17.7678 18.4388V18.4388C17.7678 18.4388 17.7678 18.4388 17.7678 18.4388V18.4388C17.7678 18.4388 17.7678 18.4388 17.7678 18.4388V18.4388C17.7678 18.4388 17.7678 18.4388 17.7678 18.4388V18.4388V18.4388C17.7678 18.4388 17.7678 18.4388 17.7678 18.4388C17.7678 18.4388 17.7678 18.4388 17.7678 18.4388V18.4388V18.4388C17.7678 18.4388 17.7678 18.4388 17.7678 18.4388C17.7678 18.4388 17.7678 18.4388 17.7678 18.4388C17.7678 18.4388 17.7678 18.4388 17.7678 18.4388C17.7678 18.4388 17.7678 18.4388 17.7678 18.4388C17.7678 18.4388 17.7678 18.4388 17.7678 18.4388C17.7678 18.4388 17.7678 18.4388 17.7678 18.4388C17.7678 18.4388 17.7678 18.4388 17.7678 18.4388C17.7678 18.4388 17.7678 18.4388 17.7678 18.4388C17.7678 18.4388 17.7678 18.4388 17.7678 18.4388V18.4388C17.7678 18.4388 17.7678 18.4388 17.7678 18.4388C17.7678 18.4388 17.7678 18.4388 17.7678 18.4388V18.4388C17.7678 18.4388 17.7678 18.4388 17.7678 18.4388C17.7678 18.4388 17.7678 18.4388 17.7678 18.4388C17.7678 18.4388 17.7678 18.4388 17.7678 18.4388V18.4388C17.7678 18.4388 17.7678 18.4388 17.7678 18.4388C17.7678 18.4388 17.7678 18.4388 17.7678 18.4388V18.4388C17.7678 18.4388 17.7678 18.4388 17.7678 18.4388V18.4388V18.4388V18.4388V18.4388C17.7678 18.4388 17.7678 18.4388 17.7678 18.4388C16.2678 18.4388 14.7678 18.4388 16.2678 18.4388ZM15.133 17.4678C14.3868 18.3311 13.2746 18.8802 12.0346 18.8802V21.8802C14.1772 21.8802 16.1073 20.9282 17.4026 19.4297L15.133 17.4678ZM12.0346 18.8802C10.7954 18.8802 9.70009 18.3415 8.94147 17.4724L6.68137 19.4452C7.98431 20.9379 9.89122 21.8802 12.0346 21.8802V18.8802ZM8.87208 17.3981C8.85453 17.3806 8.88141 17.4066 8.91151 17.441C8.93918 17.4726 9.02566 17.5732 9.10303 17.7279L6.41974 19.0696C6.50711 19.2443 6.60861 19.3649 6.65379 19.4165C6.70141 19.4709 6.7483 19.517 6.75076 19.5194L8.87208 17.3981ZM8.89847 17.4205L5.81615 13.8378L3.54197 15.7943L6.6243 19.377L8.89847 17.4205ZM5.81901 13.8411L4.51802 12.3199L2.23814 14.2698L3.53912 15.791L5.81901 13.8411ZM4.50374 12.3035C3.80129 11.5059 3.42504 10.4611 3.51252 9.33835L0.52159 9.10529C0.368896 11.0649 1.03343 12.9022 2.25242 14.2863L4.50374 12.3035ZM3.51252 9.33835C3.60103 8.20255 4.12862 7.22474 4.91729 6.5456L2.95972 4.2723C1.58676 5.45457 0.673267 7.15877 0.52159 9.10529L3.51252 9.33835ZM4.92329 6.54041C5.71007 5.85562 6.77045 5.4731 7.9047 5.55412L8.11844 2.56175C6.17038 2.4226 4.32857 3.08087 2.95372 4.27749L4.92329 6.54041ZM7.89504 5.5534C9.03084 5.6419 10.0087 6.16949 10.6878 6.95817L12.9611 5.0006C11.7788 3.62764 10.0746 2.71414 8.1281 2.56247L7.89504 5.5534ZM10.6721 6.93966C10.7014 6.97482 10.7327 7.01183 10.7594 7.04337C10.7878 7.07688 10.8115 7.10492 10.8322 7.1298L13.1369 5.20925C13.1076 5.17408 13.0763 5.13707 13.0496 5.10554C13.0212 5.07202 12.9975 5.04399 12.9768 5.0191L10.6721 6.93966ZM13.2326 7.00157C13.207 7.04003 13.1857 7.06731 13.1772 7.07807C13.1695 7.08786 13.1635 7.09491 13.1719 7.08477C13.176 7.0799 13.1945 7.05783 13.2141 7.03303C13.2345 7.00727 13.267 6.96497 13.3027 6.91151L10.8065 5.24741C10.8322 5.20895 10.8535 5.18167 10.862 5.17091C10.8697 5.16113 10.8757 5.15407 10.8673 5.16421C10.8632 5.16908 10.8447 5.19115 10.8251 5.21595C10.8047 5.24171 10.7721 5.28401 10.7365 5.33747L13.2326 7.00157ZM13.1153 7.14012C13.162 7.09342 13.1974 7.0524 13.217 7.02908C13.2276 7.01648 13.2365 7.0056 13.2427 6.99799C13.2486 6.99072 13.2539 6.98397 13.2559 6.98147C13.2589 6.97772 13.2586 6.97821 13.2577 6.9793C13.2565 6.98074 13.2526 6.98552 13.247 6.99218C13.2374 7.00362 13.212 7.03337 13.1753 7.07006L11.054 4.94874C11.0073 4.99544 10.9719 5.03646 10.9523 5.05978C10.9417 5.07238 10.9328 5.08326 10.9266 5.09087C10.9207 5.09814 10.9153 5.10489 10.9133 5.10739C10.9103 5.11114 10.9107 5.11065 10.9116 5.10956C10.9128 5.10812 10.9167 5.10334 10.9223 5.09668C10.9319 5.08525 10.9573 5.05549 10.994 5.0188L13.1153 7.14012ZM13.1753 7.07006C13.224 7.02143 13.2598 6.97948 13.2774 6.95847C13.2819 6.95316 13.2856 6.94868 13.2879 6.94584C13.2891 6.94441 13.2901 6.94317 13.2907 6.9424C13.2916 6.94132 13.2916 6.94137 13.2919 6.94098C13.2934 6.93921 13.2871 6.94685 13.2786 6.95682C13.2497 6.99046 13.0992 7.16916 12.8355 7.30101L11.4939 4.61773C11.2102 4.75958 11.0446 4.95329 11.0008 5.00444C10.9885 5.01879 10.9785 5.03097 10.9761 5.03385C10.9712 5.03978 10.9753 5.03486 10.9788 5.03063C10.9883 5.01931 11.0154 4.98737 11.054 4.94874L13.1753 7.07006ZM13.3058 6.93296C13.9899 6.13112 14.9689 5.60063 16.0756 5.51325L15.8395 2.52256C13.904 2.67536 12.2009 3.60597 11.0236 4.98577L13.3058 6.93296ZM16.0756 5.51325C17.1998 5.4245 18.2521 5.78706 19.0341 6.44596L20.9671 4.15178C19.5875 2.9893 17.7576 2.37113 15.8395 2.52256L16.0756 5.51325ZM19.0636 6.47018L19.1136 6.51021L20.9877 4.16759L20.9376 4.12756L19.0636 6.47018ZM19.0779 6.48076C19.8619 7.14862 20.3915 8.12698 20.4876 9.24957L23.4766 8.99393C23.3125 7.07422 22.401 5.37057 21.0233 4.19703L19.0779 6.48076ZM20.4868 9.2398C20.5755 10.364 20.2129 11.4163 19.554 12.1983L21.8482 14.1313C23.0107 12.7517 23.6289 10.9218 23.4774 9.0037L20.4868 9.2398ZM19.3595 13.8356L19.3695 13.8556L22.0528 12.514L22.0428 12.494L19.3595 13.8356Z" fill="black" mask="url(#path-1-inside-1_1_8268)"/>
</svg>
