<svg width="33" height="36" viewBox="0 0 33 36" fill="none" xmlns="http://www.w3.org/2000/svg">
<g filter="url(#filter0_f_1_8329)">
<ellipse cx="15.5" cy="29" rx="9.5" ry="1" fill="#8B8B8B"/>
</g>
<g filter="url(#filter1_i_1_8329)">
<path d="M11.1943 28.0993C11.1943 28.0993 13.3621 30.6149 16.4936 29.3239L17.8471 23.4669C17.8471 23.4669 19.9843 20.9388 22.3247 20.3464L21.2218 18.5805C21.2218 18.5805 17.7391 20.7557 17.3864 21.5556L18.3716 17.2923L14.9052 16.4912L13.8279 21.153C13.8279 21.153 13.4608 18.6548 11.8015 17.1171L10.2976 18.7213C10.2976 18.7213 12.34 20.3265 12.2687 22.9962L11.2096 28.1238L11.1943 28.0993Z" fill="#00B535"/>
</g>
<g filter="url(#filter2_i_1_8329)">
<path d="M5.61684 14.6386C5.54016 14.7888 4.79635 16.4636 5.71695 18.0195C6.30515 19.0158 7.24449 19.4008 7.55404 19.5143C7.95859 19.6707 8.88111 19.9469 9.93714 19.6453C11.3733 19.2427 12.4909 17.948 12.8286 16.3052C12.8148 16.3649 12.5126 17.2185 13.0963 17.962C13.4823 18.4709 14.1413 18.7071 14.7789 18.5816C15.4208 19.2546 16.4307 19.4251 17.217 19.0192C17.8853 18.67 18.3193 17.9728 18.3302 17.1988C18.2444 17.3888 17.9392 18.0738 18.178 18.9474C18.4061 19.7766 18.9745 20.2228 19.1553 20.3485C19.4418 20.5616 20.0134 20.9036 20.8241 21.0279C21.5505 21.1538 22.1635 21.0437 22.4992 20.9534C22.5941 21.2691 22.9019 22.1167 23.7646 22.6518C24.828 23.3173 26.2947 23.2365 27.475 22.397C27.6804 22.2346 28.8148 21.3216 28.9839 19.6818C29.113 18.3056 28.4804 17.3199 28.292 17.0456C28.5817 16.8817 29.4493 16.3057 29.9002 15.1717C30.4646 13.7282 29.921 12.4484 29.8076 12.2123C29.7556 12.0744 29.2901 10.7286 27.8986 10.3021C26.8811 9.98305 26.0151 10.3705 25.8036 10.4685C25.9002 10.0502 26.1443 8.99432 25.7063 7.80185C25.0433 5.94877 23.3592 5.2448 23.0895 5.14051C22.6298 4.95033 21.0376 4.39352 19.1738 5.0121C17.7683 5.46378 16.9313 6.36161 16.5863 6.76457C16.4041 6.28175 16.1651 5.95371 15.9429 5.73448C14.4568 4.17387 11.7669 4.91634 11.5892 4.9592C11.2305 5.14913 10.6419 5.51677 10.1374 6.15569C9.42913 7.0413 9.21735 7.95771 9.15591 8.4052C8.76057 8.20891 7.95147 7.89602 6.89092 7.94473C5.53304 8.00869 4.60718 8.65515 4.27453 8.91405C2.92695 10.3864 2.74397 12.3588 3.6279 13.5284C4.26825 14.3899 5.29348 14.5849 5.6766 14.6524L5.61684 14.6386Z" fill="#007935"/>
</g>
<g filter="url(#filter3_i_1_8329)">
<path d="M23.6405 18.8974H21.8201C18.6058 18.8974 16.0001 21.5031 16.0001 24.7174V24.7307C16.0001 27.945 18.6058 30.5507 21.8201 30.5507H23.6405C26.8548 30.5507 29.4605 27.945 29.4605 24.7307V24.7174C29.4605 21.5031 26.8548 18.8974 23.6405 18.8974Z" fill="#F60018"/>
</g>
<g filter="url(#filter4_d_1_8329)">
<path d="M21.8466 22.3584L23.1222 21.7472L24.3447 22.2122V21.4814L25.4476 21.1094L24.079 20.7639L25.0357 19.9799L23.2418 20.2058C23.2418 20.2058 23.2418 18.6379 23.9727 18.412L23.8265 18.0001C23.8265 18.0001 22.4579 18.0532 22.9628 20.1792L21.8599 19.568L22.2054 20.6443L20.6375 20.4981L21.6872 21.2821L21.8599 22.3584H21.8466Z" fill="#008134"/>
</g>
<path d="M18.6922 23.3842C19.1878 23.3842 19.5895 22.9825 19.5895 22.4869C19.5895 21.9913 19.1878 21.5895 18.6922 21.5895C18.1966 21.5895 17.7948 21.9913 17.7948 22.4869C17.7948 22.9825 18.1966 23.3842 18.6922 23.3842Z" fill="white" fill-opacity="0.5"/>
<defs>
<filter id="filter0_f_1_8329" x="0.131893" y="22.1319" width="30.7362" height="13.7362" filterUnits="userSpaceOnUse" color-interpolation-filters="sRGB">
<feFlood flood-opacity="0" result="BackgroundImageFix"/>
<feBlend mode="normal" in="SourceGraphic" in2="BackgroundImageFix" result="shape"/>
<feGaussianBlur stdDeviation="2.93405" result="effect1_foregroundBlur_1_8329"/>
</filter>
<filter id="filter1_i_1_8329" x="8.29761" y="12.7194" width="14.0271" height="16.9731" filterUnits="userSpaceOnUse" color-interpolation-filters="sRGB">
<feFlood flood-opacity="0" result="BackgroundImageFix"/>
<feBlend mode="normal" in="SourceGraphic" in2="BackgroundImageFix" result="shape"/>
<feColorMatrix in="SourceAlpha" type="matrix" values="0 0 0 0 0 0 0 0 0 0 0 0 0 0 0 0 0 0 127 0" result="hardAlpha"/>
<feOffset dx="-2" dy="-4"/>
<feGaussianBlur stdDeviation="1.88594"/>
<feComposite in2="hardAlpha" operator="arithmetic" k2="-1" k3="1"/>
<feColorMatrix type="matrix" values="0 0 0 0 0 0 0 0 0 0 0 0 0 0 0 0 0 0 0.25 0"/>
<feBlend mode="normal" in2="shape" result="effect1_innerShadow_1_8329"/>
</filter>
<filter id="filter2_i_1_8329" x="2.14248" y="0.956278" width="28.0097" height="22.1395" filterUnits="userSpaceOnUse" color-interpolation-filters="sRGB">
<feFlood flood-opacity="0" result="BackgroundImageFix"/>
<feBlend mode="normal" in="SourceGraphic" in2="BackgroundImageFix" result="shape"/>
<feColorMatrix in="SourceAlpha" type="matrix" values="0 0 0 0 0 0 0 0 0 0 0 0 0 0 0 0 0 0 127 0" result="hardAlpha"/>
<feOffset dx="-0.942968" dy="-3.77187"/>
<feGaussianBlur stdDeviation="2.35742"/>
<feComposite in2="hardAlpha" operator="arithmetic" k2="-1" k3="1"/>
<feColorMatrix type="matrix" values="0 0 0 0 0 0 0 0 0 0 0 0 0 0 0 0 0 0 0.25 0"/>
<feBlend mode="normal" in2="shape" result="effect1_innerShadow_1_8329"/>
</filter>
<filter id="filter3_i_1_8329" x="12.4107" y="18.8974" width="17.0499" height="11.6533" filterUnits="userSpaceOnUse" color-interpolation-filters="sRGB">
<feFlood flood-opacity="0" result="BackgroundImageFix"/>
<feBlend mode="normal" in="SourceGraphic" in2="BackgroundImageFix" result="shape"/>
<feColorMatrix in="SourceAlpha" type="matrix" values="0 0 0 0 0 0 0 0 0 0 0 0 0 0 0 0 0 0 127 0" result="hardAlpha"/>
<feOffset dx="-3.58944"/>
<feGaussianBlur stdDeviation="2.69208"/>
<feComposite in2="hardAlpha" operator="arithmetic" k2="-1" k3="1"/>
<feColorMatrix type="matrix" values="0 0 0 0 0 0 0 0 0 0 0 0 0 0 0 0 0 0 0.25 0"/>
<feBlend mode="normal" in2="shape" result="effect1_innerShadow_1_8329"/>
</filter>
<filter id="filter4_d_1_8329" x="19.7401" y="17.5514" width="6.6049" height="6.15306" filterUnits="userSpaceOnUse" color-interpolation-filters="sRGB">
<feFlood flood-opacity="0" result="BackgroundImageFix"/>
<feColorMatrix in="SourceAlpha" type="matrix" values="0 0 0 0 0 0 0 0 0 0 0 0 0 0 0 0 0 0 127 0" result="hardAlpha"/>
<feOffset dy="0.44868"/>
<feGaussianBlur stdDeviation="0.44868"/>
<feComposite in2="hardAlpha" operator="out"/>
<feColorMatrix type="matrix" values="0 0 0 0 0 0 0 0 0 0 0 0 0 0 0 0 0 0 0.25 0"/>
<feBlend mode="normal" in2="BackgroundImageFix" result="effect1_dropShadow_1_8329"/>
<feBlend mode="normal" in="SourceGraphic" in2="effect1_dropShadow_1_8329" result="shape"/>
</filter>
</defs>
</svg>
