<svg width="221" height="187" viewBox="0 0 221 187" fill="none" xmlns="http://www.w3.org/2000/svg">
<g clip-path="url(#clip0_1_12059)">
<path d="M220.392 32.6575C220.08 27.3507 216.934 23.8492 216.18 23.0526C212.972 19.6615 209.145 18.743 207.392 18.3488C197.956 16.2285 189.518 21.7514 185.736 24.2275C180.097 27.9193 178.824 30.546 174.936 33.9754C169.751 38.5514 161.04 43.561 145.745 44.635C148.954 49.2231 152.334 54.6971 155.508 61.0676C157.906 65.8887 159.812 70.4767 161.334 74.6865C171.712 60.9083 180.83 56.853 187.483 55.8549C190.109 55.4613 193.651 55.3511 199.2 53.7593C205.048 52.08 210.847 50.2891 215.377 45.1145C216.826 43.4597 220.762 38.9651 220.392 32.6575ZM203.718 41.8773C198.631 44.515 193.009 43.7675 191.161 40.2054C189.314 36.6434 191.938 31.6183 197.025 28.9806C202.111 26.343 207.734 27.0904 209.581 30.6525C211.429 34.2146 208.804 39.2396 203.718 41.8773Z" fill="white"/>
<path d="M130.232 146.881L103.648 95.6399C96.8714 96.379 90.0256 93.0969 86.5025 86.8485C86.4036 86.6706 86.3047 86.4876 86.2109 86.3047L74.9587 64.6121C73.9313 62.6304 74.7023 60.1848 76.6892 59.1524C77.6801 58.6387 78.792 58.5708 79.7783 58.8854C80.7696 59.2 81.6353 59.8869 82.149 60.8778L90.8031 77.555C91.1489 78.2157 91.7243 78.6769 92.3835 78.8867C93.0427 79.0964 93.7806 79.0545 94.4463 78.7087C95.6049 78.1061 96.1456 76.784 95.8011 75.5729C95.7527 75.3956 95.6839 75.2281 95.6 75.0605L86.6397 57.7887C86.0401 55.9382 86.842 53.8717 88.6307 52.9431C89.6216 52.4294 90.7284 52.3666 91.7198 52.6761C92.4293 52.9016 93.0709 53.3182 93.5692 53.8998L102.648 71.3951C102.767 71.6238 102.916 71.8326 103.09 72.0114C103.41 72.3485 103.801 72.5905 104.229 72.7268C104.339 72.7634 104.455 72.7799 104.571 72.8015L104.428 72.5271C104.477 72.6236 104.527 72.7151 104.576 72.8066C105.141 72.9091 105.737 72.8403 106.286 72.5538C107.506 71.9216 108.038 70.4934 107.577 69.2405C107.538 69.1289 107.489 69.0172 107.435 68.9105L98.5733 51.8319C97.8379 49.9293 98.6362 47.7416 100.486 46.7833C101.477 46.2696 102.589 46.2018 103.575 46.5163C104.566 46.831 105.432 47.5179 105.946 48.5087L116.422 68.6973C116.576 68.9314 116.725 69.1705 116.864 69.4146C116.864 69.4146 117.076 69.7807 117.274 70.1618C121.043 77.4535 118.432 84.3172 118.432 84.3172C117.947 85.5994 116.953 87.6838 114.863 89.7908L140.049 138.339C158.843 118.012 163.893 87.3075 150.409 61.316C133.219 28.18 92.4243 15.259 59.2883 32.4484C52.6265 35.9061 46.787 40.3179 41.8383 45.4269L54.1376 69.1369L63.8178 64.1134C65.9367 63.0118 68.5534 63.8403 69.655 65.9593L86.3703 98.1756C92.357 109.716 87.8526 123.921 76.3177 129.908C75.2557 130.461 74.0731 130.523 73.0163 130.192C71.9647 129.857 71.0339 129.119 70.4856 128.062L33.2709 56.3727C20.8897 76.0116 18.9608 101.505 30.4254 123.599C47.6148 156.735 88.4097 169.656 121.546 152.467C124.65 150.856 127.581 149.037 130.326 147.034C130.297 146.983 130.262 146.932 130.237 146.881L130.232 146.881Z" fill="white"/>
<path d="M34.9269 144.688C38.1431 148.67 43.5312 154.379 51.5591 158.928C70.204 169.489 95.7838 169.641 116.011 161.508C129.839 155.947 136.589 148.354 150.368 149.611C157.26 150.237 162.735 152.791 166.307 154.868C159.824 158.995 152.043 163.151 142.952 166.621C115.181 177.221 89.8074 175.824 74.8074 173.629C76.0755 175.32 78.3487 177.887 81.9207 179.949C87.0027 182.883 91.8634 183.146 94.1517 183.117C94.1517 183.117 57.8013 197.037 34.9319 144.688L34.9269 144.688Z" fill="white"/>
<path d="M133.028 32.8649C129.179 29.4916 122.9 24.7868 114.214 21.6753C94.0401 14.4496 68.8083 18.6653 50.2648 30.131C37.5921 37.9681 32.2336 46.6028 18.4424 47.7196C11.5417 48.2805 5.71154 46.6972 1.83933 45.2581C7.52114 40.0818 14.4785 34.6629 22.8449 29.6897C48.4017 14.5078 73.639 11.5498 88.7956 11.1509C87.2569 9.70365 84.5798 7.56122 80.7074 6.13719C75.2006 4.11325 70.3655 4.68813 68.1181 5.1013C68.1181 5.1013 101.559 -14.817 133.028 32.8599L133.028 32.8649Z" fill="white"/>
</g>
<defs>
<clipPath id="clip0_1_12059">
<rect width="218.426" height="183.846" fill="white" transform="translate(2.36755) rotate(0.668841)"/>
</clipPath>
</defs>
</svg>
