<svg width="123" height="38" viewBox="0 0 123 38" fill="none" xmlns="http://www.w3.org/2000/svg">
<g clip-path="url(#clip0_1_6523)">
<path d="M37.8667 8.60721C37.8132 7.69609 37.273 7.09492 37.1437 6.95814C36.5929 6.37593 35.9357 6.21824 35.6347 6.15056C34.0148 5.78653 32.566 6.73474 31.9168 7.15986C30.9486 7.79372 30.73 8.24468 30.0624 8.83348C29.1722 9.61912 27.6767 10.4792 25.0506 10.6636C25.6016 11.4513 26.182 12.3912 26.7268 13.4849C27.1386 14.3126 27.4658 15.1003 27.7271 15.8231C29.5089 13.4576 31.0744 12.7613 32.2167 12.5899C32.6676 12.5224 33.2756 12.5034 34.2284 12.2301C35.2324 11.9418 36.228 11.6343 37.0058 10.7459C37.2545 10.4618 37.9303 9.69015 37.8667 8.60721ZM35.004 10.1901C34.1307 10.643 33.1653 10.5147 32.8482 9.9031C32.531 9.29153 32.9816 8.42878 33.8549 7.97592C34.7281 7.52307 35.6935 7.6514 36.0107 8.26297C36.3279 8.87454 35.8773 9.73729 35.004 10.1901Z" fill="#FF3A0A"/>
<path d="M22.3879 28.218L17.8236 19.4204C16.6602 19.5473 15.4848 18.9838 14.88 17.9111C14.863 17.8805 14.846 17.8491 14.8299 17.8177L12.898 14.0933C12.7216 13.7531 12.854 13.3332 13.1951 13.1559C13.3652 13.0677 13.5562 13.0561 13.7255 13.1101C13.8957 13.1641 14.0443 13.282 14.1325 13.4522L15.6183 16.3155C15.6777 16.4289 15.7765 16.5081 15.8897 16.5441C16.0028 16.5801 16.1295 16.5729 16.2438 16.5135C16.4427 16.4101 16.5356 16.1831 16.4764 15.9752C16.4681 15.9447 16.4563 15.916 16.4419 15.8872L14.9035 12.9218C14.8006 12.6041 14.9383 12.2493 15.2453 12.0899C15.4155 12.0017 15.6055 11.9909 15.7757 12.044C15.8975 12.0827 16.0077 12.1543 16.0932 12.2541L17.652 15.2579C17.6723 15.2971 17.6979 15.333 17.7279 15.3637C17.7827 15.4216 17.8499 15.4631 17.9233 15.4865C17.9423 15.4928 17.9622 15.4956 17.9821 15.4993L17.9575 15.4522C17.966 15.4688 17.9745 15.4845 17.983 15.5002C18.0799 15.5178 18.1824 15.506 18.2766 15.4568C18.486 15.3483 18.5773 15.1031 18.4983 14.8879C18.4916 14.8688 18.4831 14.8496 18.4738 14.8313L16.9524 11.8991C16.8261 11.5724 16.9632 11.1968 17.2807 11.0323C17.4509 10.9441 17.6418 10.9325 17.8111 10.9865C17.9813 11.0405 18.1299 11.1584 18.2181 11.3285L20.0169 14.7947C20.0433 14.8349 20.0688 14.8759 20.0926 14.9178C20.0926 14.9178 20.1292 14.9807 20.1631 15.0461C20.8101 16.298 20.3619 17.4764 20.3619 17.4764C20.2787 17.6966 20.108 18.0545 19.7491 18.4162L24.0734 26.7514C27.3 23.2615 28.1671 17.9899 25.8519 13.5274C22.9007 7.83832 15.8967 5.61992 10.2076 8.57116C9.06383 9.16481 8.06124 9.92226 7.21161 10.7994L9.32327 14.8702L10.9852 14.0077C11.349 13.8185 11.7983 13.9608 11.9874 14.3246L14.8573 19.8558C15.8851 21.8371 15.1118 24.276 13.1313 25.3038C12.949 25.3988 12.746 25.4095 12.5645 25.3527C12.384 25.2951 12.2242 25.1684 12.13 24.9869L5.74068 12.6787C3.61498 16.0505 3.28379 20.4274 5.25214 24.2207C8.20338 29.9098 15.2074 32.1282 20.8965 29.1769C21.4295 28.9005 21.9326 28.5881 22.404 28.2442C22.3989 28.2354 22.393 28.2267 22.3887 28.218L22.3879 28.218Z" fill="#FF3A0A"/>
<path d="M6.02515 27.8413C6.57734 28.525 7.50241 29.5053 8.88072 30.2862C12.0818 32.0995 16.4736 32.1256 19.9463 30.7293C22.3204 29.7745 23.4794 28.4709 25.8451 28.6867C27.0283 28.7941 27.9684 29.2326 28.5816 29.5892C27.4686 30.2977 26.1327 31.0113 24.5718 31.6071C19.8038 33.427 15.4475 33.1871 12.8722 32.8102C13.0899 33.1006 13.4802 33.5414 14.0935 33.8954C14.966 34.399 15.8005 34.4443 16.1934 34.4393C16.1934 34.4393 9.95243 36.8291 6.02601 27.8413L6.02515 27.8413Z" fill="#FF3A0A"/>
<path d="M22.8678 8.64254C22.2068 8.06338 21.1289 7.25563 19.6376 6.7214C16.1739 5.48084 11.8419 6.20463 8.65822 8.17316C6.48246 9.51871 5.56246 11.0012 3.19467 11.1929C2.00989 11.2892 1.00892 11.0174 0.344104 10.7703C1.31961 9.8816 2.51411 8.95123 3.95053 8.09739C8.33834 5.49083 12.6713 4.98297 15.2735 4.91449C15.0093 4.66601 14.5497 4.29818 13.8849 4.05369C12.9394 3.7062 12.1093 3.8049 11.7234 3.87584C11.7234 3.87584 17.4648 0.456087 22.8678 8.64167L22.8678 8.64254Z" fill="#FF3A0A"/>
</g>
<path d="M54.688 28.5V14.268H49.24V11.22H63.4V14.268H57.952V28.5H54.688ZM65.5684 13.74V10.86H68.8324V13.74H65.5684ZM65.5684 28.5V15.54H68.8324V28.5H65.5684ZM78.454 28.86C77.126 28.86 75.954 28.576 74.938 28.008C73.93 27.432 73.138 26.644 72.562 25.644C71.994 24.636 71.71 23.484 71.71 22.188C71.71 20.772 71.99 19.54 72.55 18.492C73.11 17.444 73.882 16.632 74.866 16.056C75.85 15.472 76.982 15.18 78.262 15.18C79.622 15.18 80.778 15.5 81.73 16.14C82.682 16.78 83.386 17.68 83.842 18.84C84.298 20 84.458 21.364 84.322 22.932H81.094V21.732C81.094 20.412 80.882 19.464 80.458 18.888C80.042 18.304 79.358 18.012 78.406 18.012C77.294 18.012 76.474 18.352 75.946 19.032C75.426 19.704 75.166 20.7 75.166 22.02C75.166 23.228 75.426 24.164 75.946 24.828C76.474 25.484 77.246 25.812 78.262 25.812C78.902 25.812 79.45 25.672 79.906 25.392C80.362 25.112 80.71 24.708 80.95 24.18L84.214 25.116C83.726 26.3 82.954 27.22 81.898 27.876C80.85 28.532 79.702 28.86 78.454 28.86ZM74.158 22.932V20.508H82.75V22.932H74.158ZM90.3972 28.86C89.4692 28.86 88.6812 28.684 88.0332 28.332C87.3932 27.972 86.9052 27.496 86.5692 26.904C86.2412 26.304 86.0772 25.644 86.0772 24.924C86.0772 24.324 86.1692 23.776 86.3532 23.28C86.5372 22.784 86.8332 22.348 87.2412 21.972C87.6572 21.588 88.2132 21.268 88.9092 21.012C89.3892 20.836 89.9612 20.68 90.6252 20.544C91.2892 20.408 92.0412 20.28 92.8812 20.16C93.7212 20.032 94.6452 19.892 95.6532 19.74L94.4772 20.388C94.4772 19.62 94.2932 19.056 93.9252 18.696C93.5572 18.336 92.9412 18.156 92.0772 18.156C91.5972 18.156 91.0972 18.272 90.5772 18.504C90.0572 18.736 89.6932 19.148 89.4852 19.74L86.5332 18.804C86.8612 17.732 87.4772 16.86 88.3812 16.188C89.2852 15.516 90.5172 15.18 92.0772 15.18C93.2212 15.18 94.2372 15.356 95.1252 15.708C96.0132 16.06 96.6852 16.668 97.1412 17.532C97.3972 18.012 97.5492 18.492 97.5972 18.972C97.6452 19.452 97.6692 19.988 97.6692 20.58V28.5H94.8132V25.836L95.2212 26.388C94.5892 27.26 93.9052 27.892 93.1692 28.284C92.4412 28.668 91.5172 28.86 90.3972 28.86ZM91.0932 26.292C91.6932 26.292 92.1972 26.188 92.6052 25.98C93.0212 25.764 93.3492 25.52 93.5892 25.248C93.8372 24.976 94.0052 24.748 94.0932 24.564C94.2612 24.212 94.3572 23.804 94.3812 23.34C94.4132 22.868 94.4292 22.476 94.4292 22.164L95.3892 22.404C94.4212 22.564 93.6372 22.7 93.0372 22.812C92.4372 22.916 91.9532 23.012 91.5852 23.1C91.2172 23.188 90.8932 23.284 90.6132 23.388C90.2932 23.516 90.0332 23.656 89.8332 23.808C89.6412 23.952 89.4972 24.112 89.4012 24.288C89.3132 24.464 89.2692 24.66 89.2692 24.876C89.2692 25.172 89.3412 25.428 89.4852 25.644C89.6372 25.852 89.8492 26.012 90.1212 26.124C90.3932 26.236 90.7172 26.292 91.0932 26.292ZM108.565 28.5C107.669 28.668 106.789 28.74 105.925 28.716C105.069 28.7 104.301 28.552 103.621 28.272C102.949 27.984 102.437 27.524 102.085 26.892C101.765 26.3 101.597 25.7 101.581 25.092C101.565 24.476 101.557 23.78 101.557 23.004V11.94H104.821V22.812C104.821 23.316 104.825 23.772 104.833 24.18C104.849 24.58 104.933 24.9 105.085 25.14C105.373 25.596 105.833 25.844 106.465 25.884C107.097 25.924 107.797 25.892 108.565 25.788V28.5ZM99.3494 18.06V15.54H108.565V18.06H99.3494ZM116.517 28.86C114.885 28.86 113.565 28.492 112.557 27.756C111.557 27.012 110.949 25.964 110.733 24.612L114.069 24.108C114.205 24.716 114.505 25.192 114.969 25.536C115.441 25.88 116.037 26.052 116.757 26.052C117.349 26.052 117.805 25.94 118.125 25.716C118.445 25.484 118.605 25.164 118.605 24.756C118.605 24.5 118.541 24.296 118.413 24.144C118.285 23.984 117.997 23.828 117.549 23.676C117.109 23.524 116.421 23.324 115.485 23.076C114.429 22.804 113.585 22.5 112.953 22.164C112.321 21.828 111.865 21.428 111.585 20.964C111.305 20.492 111.165 19.924 111.165 19.26C111.165 18.428 111.377 17.708 111.801 17.1C112.225 16.484 112.821 16.012 113.589 15.684C114.365 15.348 115.277 15.18 116.325 15.18C117.341 15.18 118.241 15.336 119.025 15.648C119.809 15.96 120.441 16.404 120.921 16.98C121.409 17.556 121.709 18.236 121.821 19.02L118.485 19.62C118.429 19.14 118.221 18.76 117.861 18.48C117.501 18.2 117.013 18.036 116.397 17.988C115.797 17.948 115.313 18.028 114.945 18.228C114.585 18.428 114.405 18.716 114.405 19.092C114.405 19.316 114.481 19.504 114.633 19.656C114.793 19.808 115.117 19.964 115.605 20.124C116.101 20.284 116.853 20.492 117.861 20.748C118.845 21.004 119.633 21.304 120.225 21.648C120.825 21.984 121.261 22.392 121.533 22.872C121.805 23.344 121.941 23.916 121.941 24.588C121.941 25.916 121.461 26.96 120.501 27.72C119.541 28.48 118.213 28.86 116.517 28.86Z" fill="#FF3A0A"/>
<defs>
<clipPath id="clip0_1_6523">
<rect width="37.5013" height="31.5644" fill="white" transform="translate(0.434814 3) rotate(0.668841)"/>
</clipPath>
</defs>
</svg>
