<svg width="25" height="24" viewBox="0 0 25 24" fill="none" xmlns="http://www.w3.org/2000/svg">
<mask id="path-1-outside-1_1_7968" maskUnits="userSpaceOnUse" x="1.19092" y="2.2597" width="23" height="16" fill="black">
<rect fill="white" x="1.19092" y="2.2597" width="23" height="16"/>
<path fill-rule="evenodd" clip-rule="evenodd" d="M12.2414 4.2597C11.813 4.2597 11.4657 4.60702 11.4657 5.03546V6.08642C6.81117 6.60095 3.19092 10.547 3.19092 15.3387V15.8903H21.8091V15.3387C21.8091 10.371 17.9179 6.31208 13.0172 6.04373V5.03546C13.0172 4.60702 12.6699 4.2597 12.2414 4.2597Z"/>
</mask>
<path d="M11.4657 6.08642L11.6415 7.67673C12.4521 7.58711 13.0657 6.90204 13.0657 6.08642H11.4657ZM3.19092 15.8903H1.59092C1.59092 16.774 2.30726 17.4903 3.19092 17.4903L3.19092 15.8903ZM21.8091 15.8903V17.4903C22.6928 17.4903 23.4091 16.774 23.4091 15.8903H21.8091ZM13.0172 6.04373H11.4172C11.4172 6.89339 12.0813 7.59488 12.9297 7.64133L13.0172 6.04373ZM13.0657 5.03546C13.0657 5.49068 12.6966 5.8597 12.2414 5.8597V2.6597C10.9293 2.6597 9.86566 3.72336 9.86566 5.03546H13.0657ZM13.0657 6.08642V5.03546H9.86566V6.08642H13.0657ZM4.79092 15.3387C4.79092 11.3717 7.78866 8.10264 11.6415 7.67673L11.2899 4.4961C5.83368 5.09925 1.59092 9.72239 1.59092 15.3387H4.79092ZM4.79092 15.8903V15.3387H1.59092V15.8903H4.79092ZM21.8091 14.2903H3.19092V17.4903H21.8091V14.2903ZM20.2091 15.3387V15.8903H23.4091V15.3387H20.2091ZM12.9297 7.64133C16.9867 7.86348 20.2091 11.2253 20.2091 15.3387H23.4091C23.4091 9.5166 18.8491 4.76067 13.1047 4.44612L12.9297 7.64133ZM11.4172 5.03546V6.04373H14.6172V5.03546H11.4172ZM12.2414 5.8597C11.7862 5.8597 11.4172 5.49068 11.4172 5.03546H14.6172C14.6172 3.72337 13.5535 2.6597 12.2414 2.6597V5.8597Z" fill="white" mask="url(#path-1-outside-1_1_7968)"/>
<rect x="0.5" y="18.1402" width="24" height="1.6" rx="0.8" fill="white"/>
</svg>
