<svg width="21" height="20" viewBox="0 0 21 20" fill="none" xmlns="http://www.w3.org/2000/svg">
<path d="M11.8582 2.22909L13.4659 5.51996C13.6833 5.95875 14.1003 6.26552 14.5846 6.34024L18.2063 6.87736C19.4268 7.06087 19.906 8.56247 19.0203 9.41547L16.3898 11.9613C16.0368 12.3052 15.8758 12.7957 15.9604 13.2739L16.5648 16.8864C16.7662 18.1016 15.4887 19.0262 14.4023 18.445L11.1697 16.7279C10.7391 16.5007 10.2215 16.4989 9.78265 16.723L6.53794 18.4172C5.44751 18.9841 4.16991 18.057 4.38658 16.8433L5.01656 13.2351C5.09792 12.7509 4.94038 12.2593 4.59647 11.9196L1.98404 9.35517C1.10442 8.48929 1.59421 6.99112 2.81596 6.82289L6.44141 6.31142C6.92615 6.24013 7.34531 5.94296 7.56589 5.49908L9.19686 2.21967C9.74499 1.11327 11.3245 1.11886 11.8648 2.22911L11.8582 2.22909Z" fill="#FFB545"/>
</svg>
